<svg xmlns="http://www.w3.org/2000/svg" xmlns:xlink="http://www.w3.org/1999/xlink" viewBox="0.4 228.2 611.6 393.3"><g fill="#0B4E95"><path d="M339.6 382.1l.2-.2c-.2 0-.2.2-.2.2z"/><path d="M507.9 229.7c-2.7 0-9.1-1.1-9.9-.6-1 .6-7.9.2-8.3 1-.3 1 6.5 1.7 5.4 2.2s-11.8.6-13.2 1 7.6 1 7.5 2.4c-.2 1.3-3 1.1-3.3 1.6s1.4 1.7 1 3.7c-.5 1.7-1.4 2.9-3.2 2.7-1.7-.2-7-2.1-13.5-5.1-6.5-3.2-12.9-1.3-15.6-.8-2.9.5-6.5 1.4-10.5 1.7-4 .2-9.5.8-15.3 1.1-5.7.3-16.1 4.9-19.5 6.5-3.5 1.7-11.4 10.2-11.4 10.2s-5.9 4.8-7 11.1c0 .3-.3 6.8 1.9 8.9 2.2 2.2 2.4 2.5 3.7 3.3 1.3.6-1.6 1.9-1.6 1.9l5.7-1.6s-.6 2.5-.8 4.4c-.2 1.9.8 1.4 1 1.6.2.3-.3 2.5 1.3 4.1 1.4 1.7 2.1-.5 3.2 1.1.6.8-.3 1.6-1.3 2.1 2.2-.8 6.2-2.2 6-1.9-.3.5-1 2.1-1.1 4.1s.2 2.4 1.4 2.9c1.3.5 1.7-1 2.5.3s4.6 8.7 3.8 9.1c-.8.3-4.9 3-8.3 6.4-3.3 3.5-8.7 11-11.4 15.4-2.7 4.4-7.8 8.7-12.6 12.1-4.8 3.2-5.6 4.1-5.6 4.1s-3.5-7-5.9-10.5c-3.5-5.2-6-7-7.6-8.4-3-2.5-5.9-4-5.9-4s1.4-3 4.1-4.4c3.8-2.1 6.2-5.9 7.5-9.9s4-7.6 7.2-13.2c3.3-5.6 8.9-6.5 9.9-5.9 1 .8 1.3 0 2.4 3s2.1 3.3 2.1 2.5 3 1.9 3 1.9.8-1.1-.6-4.4c-1.3-3.3-4.6-5.9-5.2-6.7-.6-.8-.6-1.1-.8-2.2-.2-1-1.6-2.7-1.6-2.7s-2.1 2.2-4.1 4.3c-2.1 2.1-7.5 8.9-7.5 8.9l-10.8 9.9 17.2-18.4-12.3 11s-9.2 7.5-8.4 8.1c.8.8.3 1.1-1.7 2.5-2.1 1.4-.2 1.4-1.9 2.4s-6.7-1.6-6.7-1.6 2.5 3.2 2.4 2.9c-.2-.2-3.2-.6-2.4-.3.8.3 1.1 2.1 1.1 2.1l-1.4-.3s.6 2.1-.5 4.1c-1.1 2.1-4.1 2.9-4.3 1.9-.2-1-5.9-1.4-9.9-1-4.1.6-5.6.6-9.7-1.4-4.1-2.1-5.9-.6-6.4.2-.6.8-5.1 3.2-5.1 3.2l.2-2.7s-8.7 4.4-8.7 5.7c0 1.3-2.9 4.8-2.4 4.8s9.9-8.4 29.4-7.3c9.1.5 15.1 6.4 15.1 6.4s-4.1 12.6-2.4 19.1c1.7 6.2-1.1 14.5-6.8 16.8-6 2.5-14-4.3-13.8-1.6.2 2.7.3 1.9 2.1 2.4 1.6.5 2.2.6 3.3 2.9 1 1.7.2 3-.2 3.5.2-.2.6-.5 1.9-.5 1.9-.2 2.4 1.6 2.4 1.6l-.6 3.3s5.1 0 8.3-1c3.2-1 5.2-2.9 6.4-4.8s.8-4.4 1.1-6c.3-1.6 1.6-1.4 1.6-1.4l-4.6-3s1.7-.5 3.2-1.1c1.4-.6 3.2-3.3 3-5.1-.2-1.9-2.2-1.7-2.2-1.7s.6-1.1.6-1.3c0-.2-.3-.6-1.3-1.7s0-2.5 0-2.5l3.8-10.2s6 5.2 8.6 13c2.4 7.9 1.9 18.6-1.3 26.2-3.2 7.6-13.8 12.7-21.3 15.4-7.5 2.7-18 1.4-25.9-1.7-7.9-3.2-11.6-9.5-11.6-9.5s-1.1.2-1.6.6c-.3.3-1 .8.3 3.2 1.3 2.5 6.2 5.6 10.2 7.6 4 2.1 19.2 4.3 19.2 4.3s-1.6 1.1-5.6.5c-2.9-.5-10-2.5-10-2.5l3.5 2.5 6.2 3.5s4.3.5 13-.5c8.6-1 16.7-5.6 19.9-7.2 3.2-1.6 12.2-9.2 12.1-9.2-1.3 1.3-3.8 4.4-3.8 4.4s-5.9 5.2-11.9 8.6c-6.2 3.3-18.9 5.6-18.9 5.6s7.9-.8 10.2-1.4c9.5-2.5 12.7-4.6 12.7-4.6s-3.5 3.2-4.3 3.8c-2.9 2.1-6.2 3.2-11.3 4-4 .5-8.9-.2-8.9-.2s-4-.5-3.8-.3c5.6 2.7 10.6 3.2 18.9 1.6 7.5-1.4 10.8-2.7 14.9-5.7s7.3-8.4 7.9-11 2.4-4.8 3.5-6c1.1-1.3.6-1.3.2-1.9-.3-.6-.3-2.1-.3-2.1l1 1.3h2.5s-.5-2.1-.8-3.5 0-1.6.5-3.3c.6-1.7 1-3.3 1-3.3s6-3.7 6.4-4.3c.5-.6-3.3-1.6-3.3-1.6s1-.6 1.1-1c.3-.3 1-1.9.6-3.2s-2.4-1.6-1.9-2.9 1.4-.8 1.4-.8 8.6-2.5 13.3-3.8c4.6-1.3 5.9-1.7 8.7-3.5 2.9-1.9 3.8-4 4.3-4.4.5-.3 1.7-1.6 2.1-2.2.3-.8 1.6-2.4 3.3-2.7 1.7-.3 1.9-1.6 1.9-1.6l4.9 2.1.6-1.6s1.7.3 2.9-.2c1.1-.3 1.3-2.4 1.3-2.4s4.4-1 7.5 3c3.2 3.8 9.9-.6 11.6-1.3 7.3-2.5 2.5 12.1 7.2 19.1 2.7 4.1 7.6 2.9 8.9 4.8 6.4 9.4.8 10.8.8 10.8s1 1.4 1.6 2.1c.5.6-.5 2.4-.5 2.4l3.3-2.9-3.2 6.7s1.3-1.9 5.4-5.2c1.9-1.4 1.6-.2 2.9-7.8 1.3-7.6-5.1-8.1-5.1-8.1l-3.5.2v-3.2s-4 .2-6-2.1c-2.1-2.4 1-9.9 3.3-13.5 2.2-3.8 6.4-2.4 10.3-.5 4 1.9 9.2 4.9 11.9 11 2.7 6 2.1 12.1.8 19.2-1.3 7.3-4.4 12.4-8.6 16.7-4.1 4.1-12.2 7-18.1 8.1-5.9 1-12.6 0-18.4-1.9-5.9-1.9-11-6.4-11.8-7.5-1-1.1-2.5-2.9-2.5-2.9l-1 .3s-.5.2-.8.3c-.3.2-.5.6-.5.6-.3 4.4 5.6 7.6 10.2 9.9 16.2 7.2 24.3 4.4 24.3 4.4s-4.3 1.7-7.8 1.3c-3.5-.3-11.4-2.9-11.4-2.9s1.4 1 2.1 1.4c.8.5 3.3 2.2 3.8 2.5.5.2 3.5 1.4 5.4 1.7 4.9.6 10 0 21.1-3.3 12.1-3.5 21.6-13.5 22.9-14.8l-6.5 7.2s-4.1 3-7.3 5.1c-9.4 6-19.7 7.6-19.7 7.6s3.7-.5 6.4-.8c2.9-.3 15.7-6.2 15.7-6.2l-5.6 3.2s-4 2.1-5.7 2.9c-1.7.6-6.7 1.9-9.9 2.1-3.2.2-6.5-.2-6.5-.2l-2.7-.2s1.9 1.7 7.5 2.4 6 .8 12.9-.5c7-1.3 13.7-4.4 17.6-8.6 4-4.1 4.9-8.9 5.2-9.7.3-1 .5-1.9 1.4-2.9s.3-.5 1.3-1.9.2-1.1-.2-2.2c-.3-1.1-.2-.5.5-2.1.6-1.4 1.1-1.7 2.1-3.5 1-1.7.2-1.6.2-3s1.3-1.7 1.7-2.4c.5-.5 5.9-3.5 5.9-3.5s-1.1-.2-1.7-.6c-.6-.3-1.1-.5-1.6-1s1-1 1.6-1.7c.5-1 .8-1.3 1-2.1.2-.8-1.4-1.4-2.1-2.4-.6-1 .3-1.3.2-3.5-.2-2.2-3.2-6.2-3.5-7.6-.5-1.4-4.8-7.8-5.7-7.9-1-.2-6.5-4-7.3-4.3s-5.2-4.3-7.3-5.6c-2.1-1.3-4.6-4.3-6.4-4.4-1.7-.2-4.9-1.7-4.9-1.7s.2-1.3.3-2.5c.3-1.3.2-2.4.6-3.8.5-1.4 3.3-2.4 6.8-3.5 3.5-1.3 17.2-3 17.2-3s2.1.5 3.7 1c1.6.6 5.4 2.9 5.4 2.9s-.3-1-.3-1.3c0-.5-1.3-2.4-3.2-4.3-1.9-1.9-3.7-1.7-6.7-2.2-2.9-.6-7.5-.8-7.5-.8l-2.4-3.8s1 0 1.7-.2c.6-.2 3.5.2 4.8.2 1.1.2 3 1.4 3 1.4l-7.5.5 7.9.2 3.5.2s-.5-1.1-1.7-2.2c-1.3-1.1-7.9-3.8-10.3-4.6-2.5-.8-7.3-1.4-7.3-1.4L470 290s9.2-12.1 9.5-12.4 2.7-.8 3.7-2.1c.8-1.3 1.1-1.4 1.6-3s.3-1 2.9-1.7c2.4-.8 2.1-1.6 1.9-2.4s1-.3 2.5-.5c1.6-.2.5-.8.8-2.1.2-1.3 1.7-.5 3.5-1 1.7-.5 6.2.2 8.1-1.7 2.1-1.9 2.1-2.1 3.8-3.8 1.7-1.7 1.3-.6 3.8-1.3 2.5-.6 1-.3 3.3-2.1 2.4-1.7.6-1 .8-2.2s.3-1.3.6-2.1 1-1.4 2.1-2.7c1.1-1.4.5-1.7.5-3.8.2-2.1 0-1 1.4-2.2.5-1.6-10.2-13.2-12.9-13.2zm-43.2 71.8c-1 .5-3.2 1.1-4.4 2.1-1.4 1 0 1.3.6 3.3.6 2.1-2.9 3.5-4 4.9-1.1 1.3-1.1 2.7-1.7 3.2s-3.2.5-4.4.6c-1.3.2 1.3 2.9 1.3 2.9l-3.8 3.2s-3.3.2-4.8.5c-1.3.2-8.7.5-8.7.5s1.4-2.5 2.4-4c4.6-7.3 6.8-7.5 7.2-9.1 2.1-11.9-15.9-14.5-12.7-21.8 1.3-3 2.7-4.4 2.7-4.4s1-2.1 3.2-2.7 5.6-1.3 8.4-1c2.9.5 10.3 1 15.3 1.1 4.9.2 5.9-3.2 5.9-3.2s-1.6 1.6-2.1 4c-.5 2.2-2.9 8.1-2.9 8.1l-2.5 7 8.9 4.9c-.1-.1-3-.6-3.9-.1zM274 381.9l.2-.2c-.2.1-.2.2-.2.2z"/><path d="M442.4 229.5c-2.7 0-9.1-1.1-9.9-.6-1 .6-7.9.2-8.3 1-.3 1 6.5 1.7 5.4 2.2-1.1.6-11.8.8-13.3 1.1-1.4.3 7.6 1 7.5 2.4-.2 1.3-3 1.1-3.3 1.6s1.4 1.7 1 3.7c-.5 1.7-1.4 2.9-3.2 2.7-1.7-.2-7-2.1-13.5-5.1-6.5-3.2-12.9-1.3-15.6-.8-2.9.5-6.5 1.4-10.5 1.7-4 .2-9.5.8-15.3 1.1s-16.1 4.9-19.5 6.5c-3.5 1.7-11.4 10.2-11.4 10.2s-5.9 4.8-7 11.1c0 .3-.3 6.8 1.9 8.9 2.2 2.2 2.4 2.5 3.7 3.3 1.3.6-1.6 1.9-1.6 1.9l5.7-1.6s-.6 2.5-.8 4.4c-.2 1.9.8 1.4 1 1.6.2.3-.3 2.5 1.3 4.1 1.4 1.7 2.1-.5 3.2 1.1.6.8-.3 1.6-1.3 2.1 2.2-.8 6.2-2.2 6-1.9-.3.5-1 2.1-1.1 4.1s.2 2.4 1.4 2.9c1.3.5 1.7-1 2.5.3s4.6 8.7 3.8 9.1c-.8.3-4.9 2.9-8.3 6.4-3.3 3.5-8.7 11-11.4 15.4-2.7 4.4-7.8 8.7-12.6 12.1-4.8 3.2-5.6 4.1-5.6 4.1s-3.5-7-5.9-10.5c-3.5-5.2-6-7-7.6-8.4-3-2.5-5.9-4-5.9-4s1.4-3 4.1-4.4c3.8-2.1 6.2-5.9 7.5-9.9s4-7.6 7.2-13.2c3.3-5.6 8.9-6.5 9.9-5.9 1 .8 1.3 0 2.4 3s2.1 3.3 2.1 2.5 3 1.9 3 1.9.8-1.1-.6-4.4c-1.3-3.3-4.6-5.9-5.2-6.7-.6-.8-.6-1.1-.8-2.2-.2-1-1.6-2.7-1.6-2.7s-2.1 2.2-4.1 4.3c-2.1 2.1-7.5 8.9-7.5 8.9l-10.8 9.9 17.2-18.4-12.2 11.1s-9.2 7.5-8.4 8.1c.8.8.3 1.1-1.7 2.5-2.1 1.4-.2 1.4-1.9 2.4s-6.7-1.6-6.7-1.6 2.5 3.2 2.4 2.9c-.2-.2-3.2-.6-2.4-.3s1.1 2.1 1.1 2.1l-1.4-.3s.6 2.1-.5 4.1c-1.1 2.1-4.1 2.9-4.3 1.9-.2-1-5.9-1.4-9.9-1-4.1.6-5.6.6-9.7-1.4-4.1-2.1-5.9-.6-6.4.2-.6.8-5.1 3.2-5.1 3.2l.2-2.7s-8.7 4.4-8.7 5.7c0 1.3-2.9 4.8-2.4 4.8s9.9-8.4 29.4-7.3c9.1.5 15.1 6.4 15.1 6.4s-4.1 12.6-2.4 19.1c1.7 6.2-1.1 14.5-6.8 16.8-6 2.5-14-4.3-13.8-1.6.2 2.7.3 1.9 2.1 2.4 1.6.5 2.2.6 3.3 2.9 1 1.7.2 3-.2 3.5.2-.2.6-.5 1.9-.5 1.9-.2 2.4 1.6 2.4 1.6l-.6 3.3s5.1 0 8.3-1c3.2-1 5.2-2.9 6.4-4.8 1.1-1.9.8-4.4 1.1-6 .3-1.6 1.6-1.4 1.6-1.4l-4.6-3s1.7-.5 3.2-1.1c1.4-.8 3.2-3.3 3-5.1-.2-1.9-2.2-1.7-2.2-1.7s.6-1.1.6-1.3c0-.2-.3-.6-1.3-1.9-1-1.1 0-2.5 0-2.5l3.8-10.2s6 5.2 8.6 13c2.4 7.8 1.9 18.6-1.3 26.2-3.2 7.6-13.8 12.7-21.3 15.4-7.5 2.7-18 1.4-25.9-1.7-7.9-3.2-11.6-9.5-11.6-9.5s-1.1.2-1.6.6c-.3.3-1 .8.3 3.2 1.3 2.5 6.2 5.6 10.2 7.6 4 2.1 19.2 4.3 19.2 4.3s-1.6 1.1-5.6.5c-2.9-.5-10-2.5-10-2.5l3.5 2.5 6.2 3.5s4.3.5 13-.5c8.6-1 16.7-5.6 19.9-7.2 3.2-1.6 12.2-9.2 12.1-9.2-1.4 1.3-3.8 4.4-3.8 4.4s-5.9 5.2-11.9 8.6c-6.2 3.3-18.9 5.6-18.9 5.6s7.9-.8 10.2-1.4c9.5-2.5 12.7-4.6 12.7-4.6s-3.5 3.2-4.3 3.8c-2.9 2.1-6.2 3.2-11.3 4-4 .5-8.9-.2-8.9-.2s-4-.5-3.8-.3c5.6 2.7 10.6 3.2 18.9 1.6 7.5-1.4 10.8-2.7 14.9-5.7s7.3-8.4 7.9-11c.6-2.5 2.4-4.8 3.5-6 1.1-1.3.6-1.3.2-1.9-.3-.6-.3-2.1-.3-2.1l1 1.3h2.5s-.6-2.1-.8-3.5c-.3-1.4 0-1.6.5-3.3.6-1.7 1-3.3 1-3.3s6-3.7 6.4-4.3c.5-.6-3.3-1.6-3.3-1.6s1-.6 1.1-1c.3-.3 1-1.9.6-3.2-.3-1.3-2.4-1.6-1.9-2.9s1.6-.8 1.6-.8 8.6-2.5 13.3-3.8c4.6-1.3 5.9-1.7 8.7-3.5 2.9-1.9 3.8-4 4.3-4.4.5-.3 1.7-1.6 2.1-2.2.3-.8 1.6-2.4 3.3-2.7 1.7-.3 1.9-1.6 1.9-1.6l4.9 2.1.6-1.6s1.7.3 2.9-.2c1.1-.3 1.3-2.4 1.3-2.4s4.4-1 7.5 2.9c3.2 3.8 9.9-.6 11.6-1.3 7.3-2.5 2.5 12.1 7.2 19.1 2.7 4.1 7.6 2.9 8.9 4.8 6.4 9.4.8 10.8.8 10.8s1 1.4 1.6 2.1c.6.6-.5 2.4-.5 2.4l3.3-2.9-3.2 6.5s1.3-1.9 5.4-5.2c1.9-1.4 1.6-.2 2.9-7.8 1.3-7.6-5.1-8.1-5.1-8.1l-3.5.2v-3.2s-4 .2-6-2.1c-2.1-2.4 1-9.9 3.3-13.5 2.2-3.8 6.4-2.4 10.3-.6 4 1.9 9.2 4.9 11.9 11 2.7 6 2.1 12.1.8 19.2-1.3 7.3-4.4 12.4-8.6 16.7-4.1 4.1-12.2 7-18.1 8.1-5.9 1-12.6 0-18.4-1.9-5.9-1.9-11-6.4-11.8-7.5-1-1.1-2.4-2.9-2.4-2.9l-1 .3s-.5.2-.8.3c-.3.2-.5.6-.5.6-.3 4.4 5.6 7.6 10.2 9.9 16.2 7.2 24.3 4.4 24.3 4.4s-4.3 1.7-7.8 1.3c-3.5-.3-11.4-2.9-11.4-2.9s1.4 1 2.1 1.4c.8.5 3.3 2.2 3.8 2.5.5.2 3.5 1.4 5.4 1.7 4.9.6 10 0 21.1-3.3 12.1-3.5 21.6-13.5 22.9-14.8l-6.5 7.2s-4.1 3-7.3 5.1c-9.4 6-19.7 7.6-19.7 7.6s3.7-.5 6.4-.8c2.9-.3 15.7-6.2 15.7-6.2l-5.6 3.2s-4 2.1-5.7 2.7-6.7 1.9-9.9 2.1c-3.2.2-6.5-.2-6.5-.2l-2.7-.2s1.9 1.7 7.5 2.4 6 .8 13-.5c6.8-1.3 13.7-4.4 17.6-8.6 4-4.1 4.9-8.9 5.2-9.7.3-1 .5-1.9 1.4-2.9 1-1 .3-.5 1.3-1.9s.2-1.1-.2-2.2-.2-.5.5-2.1c.6-1.4 1.1-1.7 2.1-3.5 1-1.7.2-1.6.2-3s1.3-1.7 1.7-2.4c.5-.6 5.9-3.5 5.9-3.5s-1.1-.2-1.7-.6c-.6-.3-1.1-.5-1.6-1s1-1 1.6-1.7c.5-1 .8-1.3 1-2.1.2-1-1.4-1.4-2.1-2.4-.6-1 .3-1.3.2-3.5-.2-2.2-3.2-6.2-3.5-7.6-.5-1.4-4.8-7.8-5.7-7.9-1-.2-6.5-4-7.3-4.3s-5.2-4.3-7.3-5.6c-2.1-1.3-4.6-4.3-6.4-4.4-1.7-.2-4.9-1.7-4.9-1.7s.2-1.3.3-2.5c.2-1.3.2-2.4.6-3.8.5-1.4 3.3-2.4 6.8-3.5 3.5-1.3 17.2-3 17.2-3s2.1.5 3.7 1c1.6.6 5.4 2.9 5.4 2.9s-.3-1-.3-1.3c0-.5-1.3-2.4-3.2-4.3-1.9-1.9-3.7-1.7-6.5-2.2-2.9-.6-7.5-.8-7.5-.8l-2.4-3.8s1 0 1.7-.2c.6-.2 3.5.2 4.6.2 1.1.2 3 1.4 3 1.4l-7.5.5 7.9.2 3.5.2s-.5-1.1-1.7-2.2-7.9-3.8-10.3-4.6c-2.5-.8-7.3-1.4-7.3-1.4l-7.8-4.4s9.2-12.1 9.5-12.4 2.7-.8 3.5-2.1c.8-1.3 1.1-1.4 1.6-3s.3-1 2.9-1.7c2.4-.8 2.1-1.6 1.9-2.4s1-.3 2.5-.5c1.6-.2.5-.8.8-2.1.2-1.3 1.7-.5 3.5-1 1.7-.5 6.2.2 8.1-1.7 2.1-1.9 2.1-2.1 3.8-3.8s1.3-.6 3.8-1.3 1-.3 3.3-2.1c2.4-1.7.6-1 .8-2.2.2-1.3.3-1.3.6-2.1s1-1.3 2.1-2.7c1.1-1.3.5-1.7.5-3.8.2-2.1 0-1 1.3-2.2.4-1-10.3-12.6-13-12.6zm-43.2 71.9c-1 .5-3.2 1.1-4.4 2.1-1.4.8 0 1.3.6 3.3.6 2.1-2.9 3.5-4 4.9-1.1 1.3-1.1 2.7-1.7 3.2s-3.2.5-4.4.6c-1.3.2 1.3 2.9 1.3 2.9l-3.8 3.2s-3.3.2-4.6.5c-1.3.2-8.7.5-8.7.5s1.4-2.5 2.5-4c4.6-7.3 6.8-7.5 7.2-9.1 2.1-11.9-15.9-14.5-12.7-21.8 1.3-3 2.7-4.4 2.7-4.4s1-2.1 3.2-2.7 5.6-1.3 8.4-1c2.9.5 10.3 1 15.3 1.1 4.9.2 5.7-3.2 5.7-3.2s-1.6 1.7-2.1 4c-.5 2.2-2.9 8.1-2.9 8.1l-2.5 6.8 8.9 4.9c-.2.1-3-.4-4 .1z"/><g><path d="M203.7 381.1l.2-.2-.2.2zM372 228.9c-2.7 0-9.1-1.1-9.9-.6-1 .6-7.9.2-8.3 1-.3 1 6.5 1.7 5.4 2.2s-11.8.6-13.2 1c-1.4.3 7.6 1 7.5 2.4-.2 1.3-3 1.1-3.3 1.6-.3.6 1.4 1.7 1 3.7-.5 1.7-1.4 2.9-3.2 2.7-1.6-.2-7-2.1-13.5-5.1-6.5-3.2-12.9-1.3-15.6-.8-2.9.5-6.5 1.4-10.5 1.7-4 .2-9.5.8-15.3 1.1-5.7.3-16.1 4.9-19.5 6.5-3.5 1.7-11.4 10.2-11.4 10.2s-5.9 4.8-7 11.1c0 .3-.3 6.8 1.9 8.9 2.2 2.2 2.4 2.5 3.7 3.3 1.3.6-1.6 1.9-1.6 1.9l5.7-1.6s-.6 2.5-.8 4.4.8 1.4 1 1.6c.2.3-.3 2.5 1.3 4.1 1.4 1.7 2.1-.5 3.2 1.1.6.8-.3 1.6-1.3 2.1 2.2-.8 6.2-2.2 6-1.9-.3.5-1 2.1-1.1 4.1-.2 2.1.2 2.4 1.4 2.9 1.3.5 1.7-1 2.5.3s4.6 8.7 3.8 9.1c-.8.3-4.9 3-8.3 6.4-3.3 3.5-8.7 11-11.4 15.4-2.7 4.4-7.8 8.7-12.6 12.1-4.8 3.2-5.6 4.1-5.6 4.1s-3.5-7-5.9-10.5c-3.5-5.2-6-7-7.6-8.4-3-2.5-5.9-4-5.9-4s1.4-3 4.1-4.4c3.8-2.1 6.2-5.9 7.5-9.9s4-7.6 7.2-13.2c3.3-5.6 8.9-6.5 9.9-5.9 1 .8 1.3 0 2.4 3 1.1 3 2.1 3.3 2.1 2.5s3 1.9 3 1.9.8-1.1-.6-4.4c-1.3-3.3-4.6-5.9-5.2-6.7-.6-.8-.6-1.1-.8-2.2-.2-1-1.6-2.7-1.6-2.7s-2.1 2.2-4.1 4.3c-2.1 2.1-7.5 8.9-7.5 8.9l-10.8 9.9 17.2-18.6-12.2 11.1s-9.2 7.5-8.4 8.1c.8.8.3 1.1-1.7 2.5-2.1 1.4-.2 1.4-1.9 2.4s-6.7-1.6-6.7-1.6 2.5 3.2 2.4 2.9c-.2-.2-3.2-.6-2.4-.3.8.3 1.1 2.1 1.1 2.1l-1.4-.3s.6 2.1-.5 4.1c-1.1 2.1-4.1 2.9-4.3 1.9s-5.9-1.4-9.9-1c-4.1.6-5.6.6-9.7-1.4-4.1-2.1-5.9-.6-6.4.2-.6.8-5.1 3.2-5.1 3.2l.2-2.7s-8.7 4.4-8.7 5.7-2.9 4.8-2.4 4.8 9.9-8.4 29.4-7.3c9.1.5 15.1 6.4 15.1 6.4s-4.1 12.6-2.4 19.1c1.7 6.2-1.1 14.5-6.8 16.8-6 2.5-14-4.3-13.8-1.6.2 2.7.3 1.9 2.1 2.4 1.6.5 2.2.6 3.3 2.9 1 1.7.2 3-.2 3.5.2-.2.6-.5 1.9-.5 1.9-.2 2.4 1.6 2.4 1.6l-.6 3.3s5.1 0 8.3-1 5.2-2.9 6.4-4.8c1.1-1.9.8-4.4 1.1-6s1.6-1.4 1.6-1.4l-4.6-3s1.7-.5 3.2-1.1 3.2-3.3 3-5.1c-.2-1.9-2.2-1.7-2.2-1.7s.6-1.1.6-1.3c0-.2-.3-.6-1.3-1.7s0-2.5 0-2.5l3.8-10.2s6 5.2 8.6 13c2.4 7.9 1.9 18.6-1.3 26.2s-13.8 12.7-21.3 15.4c-7.5 2.7-18 1.4-25.9-1.7-7.9-3.2-11.6-9.5-11.6-9.5s-1.1.2-1.6.6c-.3.3-1 .8.3 3.2 1.3 2.5 6.2 5.6 10.2 7.6 4 2.1 19.2 4.3 19.2 4.3s-1.6 1.1-5.6.5c-2.9-.5-10-2.5-10-2.5l3.5 2.5 6.2 3.5s4.3.5 13-.5c8.6-1 16.7-5.6 19.9-7.2s12.2-9.2 12.1-9.2c-1.4 1.3-3.8 4.4-3.8 4.4s-5.9 5.2-11.9 8.6c-6.2 3.3-18.9 5.6-18.9 5.6s7.9-.8 10.2-1.4c9.5-2.5 12.7-4.6 12.7-4.6s-3.5 3.2-4.3 3.8c-2.9 2.1-6.2 3.2-11.3 4-4 .5-8.9-.2-8.9-.2s-4-.5-3.8-.3c5.6 2.7 10.6 3.2 18.9 1.6 7.5-1.4 10.8-2.7 14.9-5.7s7.3-8.4 7.9-11c.6-2.5 2.4-4.8 3.5-6 1.1-1.3.6-1.3.2-1.9-.3-.6-.3-2.1-.3-2.1l1 1.3h2.5s-.5-2.1-.8-3.5 0-1.6.5-3.3c.6-1.7 1-3.3 1-3.3s6-3.7 6.4-4.3c.5-.6-3.3-1.6-3.3-1.6s1-.6 1.1-1c.3-.3 1-1.9.6-3.2-.3-1.3-2.4-1.6-1.9-2.9s1.6-.8 1.6-.8 8.6-2.5 13.3-3.8c4.6-1.3 5.9-1.7 8.7-3.5 2.9-1.9 3.8-4 4.3-4.4.5-.3 1.7-1.6 2.1-2.2.3-.8 1.6-2.4 3.3-2.7 1.7-.3 1.9-1.6 1.9-1.6l4.9 2.1.6-1.6s1.7.3 2.9-.2c1.1-.3 1.3-2.4 1.3-2.4s4.4-1 7.5 2.9c3.2 3.8 9.9-.6 11.6-1.3 7.3-2.5 2.5 12.1 7.2 19.1 2.7 4.3 7.6 2.9 8.9 4.8 6.4 9.4.8 10.8.8 10.8s1 1.4 1.6 2.1c.6.6-.5 2.4-.5 2.4l3.3-2.9-3.2 6.7s1.3-1.9 5.4-5.2c1.9-1.4 1.6-.2 2.9-7.8s-5.1-8.1-5.1-8.1l-3.5.2v-3.2s-4 .2-6-2.2c-2.1-2.4 1-9.9 3.3-13.5 2.2-3.8 6.4-2.4 10.3-.6 4 1.9 9.2 4.9 11.9 11 2.7 6 2.1 12.1.8 19.2-1.3 7.3-4.4 12.4-8.6 16.7-4.1 4.1-12.2 7-18.1 8.1-5.9 1-12.6 0-18.4-1.9-5.9-1.9-11-6.4-11.8-7.5-1-1.1-2.5-2.9-2.5-2.9l-1 .3s-.5.2-.8.3c-.3.2-.5.6-.5.6-.3 4.4 5.6 7.6 10.2 9.7 16.2 7.2 24.3 4.4 24.3 4.4s-4.3 1.7-7.8 1.3c-3.5-.3-11.4-2.9-11.4-2.9s1.4 1 2.1 1.4c.8.5 3.3 2.2 3.8 2.5.5.2 3.5 1.4 5.4 1.7 4.9.6 10 0 21.1-3.3 12.1-3.5 21.6-13.5 22.9-14.8l-6.5 7.2s-4.1 3-7.3 5.1c-9.4 6-19.7 7.6-19.7 7.6s3.7-.5 6.4-.8c2.9-.3 15.7-6.2 15.7-6.2l-5.6 3.2s-4 2.1-5.7 2.7-6.7 1.9-9.9 2.1c-3.2.2-6.5-.2-6.5-.2l-2.7-.2s1.9 1.7 7.5 2.4 6 .8 13-.5 13.7-4.4 17.6-8.6c4-4.1 4.9-8.9 5.2-9.7.3-1 .5-1.9 1.4-2.9.8-1 .3-.5 1.3-1.9s.2-1.1-.2-2.2c-.3-1.1-.2-.5.5-2.1.6-1.4 1.1-1.7 2.1-3.5 1-1.7.2-1.6.2-3s1.3-1.7 1.7-2.4c.5-.5 5.9-3.5 5.9-3.5s-1.1-.2-1.7-.6c-.6-.3-1.1-.5-1.6-.8-.5-.5 1-1 1.6-1.7.5-1 .8-1.3 1-2.1.2-1-1.4-1.4-2.1-2.4s.3-1.3.2-3.5c-.2-2.2-3.2-6.2-3.5-7.6-.5-1.4-4.8-7.8-5.7-7.9-1-.2-6.5-4-7.3-4.3s-5.2-4.3-7.3-5.6c-2.1-1.3-4.6-4.3-6.4-4.4-1.7-.2-4.9-1.7-4.9-1.7s.2-1.3.3-2.5c.3-1.3.2-2.4.6-3.8.5-1.4 3.3-2.4 6.8-3.5 3.5-1.3 17.2-3 17.2-3s2.1.5 3.7 1c1.6.6 5.4 2.9 5.4 2.9s-.3-1-.3-1.3c0-.5-1.3-2.4-3.2-4.3-1.9-1.9-3.7-1.7-6.7-2.2-2.9-.6-7.5-.8-7.5-.8l-2.4-3.8s1 0 1.7-.2c.6-.2 3.5.2 4.8.2 1.1.2 3 1.4 3 1.4l-7.5.5 7.9.2 2.7.6s-.5-1.1-1.7-2.2c-1.3-1.1-7.9-3.8-10.3-4.6-2.5-.8-7.3-1.4-7.3-1.4l-7.8-4.4s9.2-12.1 9.5-12.4 2.7-.8 3.5-2.1c.8-1.3 1.1-1.4 1.6-3s.3-1 2.9-1.7c2.4-.8 2.1-1.6 1.9-2.4s1-.3 2.5-.5c1.6-.2.5-.8.8-2.1.2-1.3 1.7-.5 3.5-1 1.7-.5 6.2.2 8.1-1.7 2.1-1.9 2.1-2.1 3.8-3.8 1.7-1.7 1.3-.6 3.8-1.3 2.5-.6 1-.3 3.3-2.1 2.4-1.7.6-1 .8-2.2s.3-1.3.6-2.1 1-1.4 2.1-2.7.5-1.7.5-3.8c.2-2.1 0-1 1.3-2.2 1.3-1.6-9.5-13-12.2-13zm-43.2 71.7c-1 .5-3.2 1.1-4.4 2.1-1.4 1 0 1.3.6 3.3.6 2.1-2.9 3.5-4 4.9-1.1 1.3-1.1 2.7-1.7 3.2s-3.2.5-4.4.6c-1.3.2 1.3 2.9 1.3 2.9l-3.8 3.2s-3.3.2-4.6.5c-1.3.2-8.7.5-8.7.5s1.4-2.5 2.4-4c4.6-7.3 6.8-7.5 7.2-9.1 2.1-11.9-15.9-14.5-12.7-21.8 1.3-3 2.7-4.4 2.7-4.4s1-2.1 3.2-2.7 5.6-1.3 8.4-1c2.9.5 10.3 1 15.3 1.1 4.9.2 5.9-3.2 5.9-3.2s-1.6 1.6-2.1 4c-.5 2.2-2.9 8.1-2.9 8.1l-2.5 7 8.9 4.9c-.3-.1-3.1-.6-4.1-.1z"/></g><g><path d="M137.6 381.5l.2-.2-.2.2zM305.9 229.2c-2.7 0-9.1-1.1-9.9-.6-1 .6-7.9.2-8.3 1-.3 1 6.5 1.7 5.4 2.2s-11.8.6-13.2 1 7.6 1 7.5 2.4c-.2 1.3-3 1.1-3.3 1.6s1.4 1.7 1 3.7c-.5 1.7-1.4 2.9-3.2 2.7-1.6-.2-7-2.1-13.5-5.1-6.5-3.2-12.9-1.3-15.6-.8-2.9.5-6.5 1.4-10.5 1.7-4 .2-9.5.8-15.3 1.1-5.7.3-16.1 4.9-19.5 6.5-3.5 1.7-11.4 10.2-11.4 10.2s-5.9 4.8-7 11.1c0 .3-.3 6.8 1.9 8.9 2.2 2.2 2.4 2.5 3.7 3.3 1.3.6-1.6 1.9-1.6 1.9l5.7-1.6s-.6 2.5-.8 4.4.8 1.4 1 1.6c.2.3-.3 2.5 1.3 4.1 1.4 1.7 2.1-.5 3.2 1.1.6.8-.3 1.6-1.3 2.1 2.2-.8 6.2-2.2 6-1.9-.3.5-1 2.1-1.1 4.1-.2 2.1.2 2.4 1.4 2.9 1.3.5 1.7-1 2.5.3s4.6 8.7 3.8 9.1-4.9 3-8.3 6.4c-3.3 3.5-8.7 11-11.4 15.4s-7.8 8.7-12.4 12.1c-4.8 3.2-5.6 4.1-5.6 4.1s-3.5-7-5.9-10.5c-3.5-5.2-6-7-7.6-8.4-3-2.5-5.9-4-5.9-4s1.4-3 4.1-4.4c3.8-2.1 6.2-5.9 7.5-9.9s4-7.6 7.2-13.2c3.3-5.6 8.9-6.5 9.9-5.9 1 .8 1.3 0 2.4 3 1.1 3 2.1 3.3 2.1 2.5s3 1.9 3 1.9.8-1.1-.6-4.4c-1.3-3.3-4.6-5.9-5.2-6.7-.6-.8-.6-1.1-.8-2.2-.2-1-1.7-2.7-1.7-2.7s-2.1 2.2-4.1 4.3c-2.1 2.1-7.5 8.9-7.5 8.9l-10.8 9.9 17.2-18.4-12.4 11.1s-9.2 7.5-8.4 8.1c.8.8.3 1.1-1.7 2.5-2.1 1.4-.2 1.4-1.9 2.4s-6.7-1.6-6.7-1.6 2.5 3.2 2.4 2.9c-.2-.2-3.2-.6-2.4-.3.8.3 1.1 2.1 1.1 2.1l-1.4-.3s.6 2.1-.5 4.1c-1.1 2.1-4.1 2.9-4.3 1.9s-5.9-1.4-9.9-1c-4.1.8-5.6.8-9.7-1.3s-5.9-.6-6.4.2c-.6.8-5.1 3.2-5.1 3.2l.2-2.7s-8.7 4.4-8.7 5.7c0 1.3-2.9 4.8-2.4 4.8s9.9-8.4 29.4-7.3c9.1.5 15.1 6.4 15.1 6.4s-4.1 12.6-2.4 19.1c1.7 6.2-1.1 14.5-6.8 16.8-6 2.5-14-4.3-13.8-1.6.2 2.7.3 1.9 2.1 2.4 1.6.5 2.2.6 3.3 2.9 1 1.7.2 3-.2 3.5.2-.2.6-.5 1.9-.5 1.9-.2 2.4 1.6 2.4 1.6l-.8 3.3s5.1 0 8.3-1 5.2-2.9 6.4-4.8c1.1-1.9.8-4.4 1.1-6s1.6-1.4 1.6-1.4l-4.6-3s1.7-.5 3.2-1.1c1.4-.6 3.2-3.3 3-5.1-.2-1.9-2.2-1.7-2.2-1.7s.6-1.1.6-1.3c0-.2-.3-.6-1.3-1.7s0-2.5 0-2.5l3.8-10.2s6 5.2 8.6 13c2.4 7.9 1.9 18.6-1.3 26.2s-13.8 12.7-21.3 15.4c-7.5 2.5-18 1.4-25.9-1.7-7.9-3.2-11.6-9.5-11.6-9.5s-1.1.2-1.6.6c-.3.3-1 .8.3 3.2 1.3 2.5 6.2 5.6 10.2 7.6 4 2.1 19.2 4.3 19.2 4.3s-1.6 1.1-5.6.5c-2.9-.5-10-2.5-10-2.5l3.5 2.5 6.2 3.5s4.3.5 13-.5c8.6-1 16.7-5.6 19.9-7.2s12.2-9.2 12.1-9.2c-1.4 1.3-3.8 4.4-3.8 4.4s-5.9 5.2-11.9 8.6c-6.2 3.3-18.9 5.6-18.9 5.6s7.9-.8 10.2-1.4c9.5-2.5 12.7-4.6 12.7-4.6s-3.5 3.2-4.3 3.8c-2.9 2.1-6.2 3.2-11.3 4-4 .5-8.9-.2-8.9-.2s-4-.5-3.8-.3c5.6 2.7 10.6 3.2 18.9 1.6 7.5-1.4 10.8-2.7 14.9-5.7s7.3-8.4 7.9-11c.6-2.5 2.4-4.8 3.5-6 1.1-1.3.6-1.3.2-1.9-.3-.6-.3-2.1-.3-2.1l1 1.3h2.5s-.5-2.1-.8-3.5 0-1.6.5-3.3c.6-1.7 1-3.3 1-3.3s6-3.7 6.4-4.3c.5-.6-3.3-1.6-3.3-1.6s1-.6 1.1-1c.3-.3 1-1.9.6-3.2-.3-1.3-2.4-1.6-1.9-2.9s1.6-.8 1.6-.8 8.6-2.5 13.3-3.8c4.6-1.3 5.9-1.7 8.7-3.5 2.9-1.9 3.8-4 4.3-4.4.5-.3 1.7-1.6 2.1-2.2.3-.8 1.6-2.4 3.3-2.7s1.9-1.6 1.9-1.6l4.9 2.1.6-1.6s1.7.3 2.9-.2c1.1-.3 1.3-2.4 1.3-2.4s4.4-1 7.5 2.9c3.2 3.8 9.9-.6 11.6-1.3 7.3-2.5 2.5 12.1 7.2 19.1 2.7 4.1 7.6 2.9 8.9 4.8 6.4 9.4.8 10.8.8 10.8s1 1.4 1.6 2.1c.6.6-.5 2.4-.5 2.4l3.3-2.9-3.2 6.7s1.3-1.9 5.4-5.2c1.9-1.4 1.6-.2 2.9-7.8 1.3-7.6-5.1-8.1-5.1-8.1l-3.5.2v-3.2s-4 .2-6-2.1c-2.1-2.4 1-9.9 3.3-13.5 2.2-3.8 6.4-2.4 10.3-.5 4 1.9 9.2 4.9 11.9 11 2.7 6 2.1 12.1.8 19.2-1.3 7.3-4.4 12.4-8.6 16.7-4.1 4.1-12.2 7-18.1 8.1-5.9 1-12.6 0-18.4-1.9-5.9-1.9-11-6.4-11.8-7.5-1-1.1-2.5-2.9-2.5-2.9l-1 .3s-.5.2-.8.3c-.3.2-.5.6-.5.6-.3 4.4 5.6 7.6 10.2 9.7 16.2 7.2 24.3 4.4 24.3 4.4s-4.3 1.7-7.8 1.3c-3.5-.3-11.4-2.9-11.4-2.9s1.4 1 2.1 1.4c.8.5 3.3 2.2 3.8 2.5.5.2 3.5 1.4 5.4 1.7 4.9.6 10 0 21.1-3.3 12.1-3.5 21.6-13.5 22.9-14.8l-6.5 7.2s-4.1 3-7.3 5.1c-9.4 6-19.7 7.6-19.7 7.6s3.7-.5 6.4-.8c2.9-.3 15.7-6.2 15.7-6.2l-5.6 3.2s-4 2.1-5.7 2.7-6.7 1.9-9.9 2.1c-3.2.2-6.5-.2-6.5-.2l-2.7-.2s1.9 1.7 7.5 2.4 6 .8 13-.5 13.7-4.4 17.6-8.6c4-4.1 4.9-8.9 5.2-9.7.3-1 .5-1.9 1.4-2.9.8-1 .3-.5 1.3-1.9s.2-1.1-.2-2.2c-.3-1.1-.2-.5.5-2.1.6-1.4 1.1-1.7 2.1-3.5 1-1.7.2-1.6.2-3s1.3-1.7 1.7-2.4c.5-.5 5.9-3.5 5.9-3.5s-1.1-.2-1.7-.6c-.6-.3-1.1-.5-1.6-1s1-1 1.6-1.7c.5-1 .8-1.3 1-2.1.2-.8-1.4-1.4-2.1-2.4-.6-1 .3-1.3.2-3.5-.2-2.2-3.2-6.2-3.7-7.6s-4.8-7.8-5.7-7.9c-1-.2-6.5-4-7.3-4.3s-5.2-4.3-7.3-5.6c-2.1-1.3-4.6-4.3-6.4-4.4-1.7-.2-4.9-1.7-4.9-1.7s.2-1.3.3-2.5c.3-1.3.2-2.4.6-3.8.5-1.4 3.3-2.4 6.8-3.5 3.5-1.3 17.2-3 17.2-3s2.1.5 3.7 1c1.6.6 5.4 2.9 5.4 2.9s-.3-1-.3-1.3c0-.5-1.3-2.4-3.2-4.3-1.9-1.9-3.7-1.7-6.5-2.2-2.9-.6-7.5-.8-7.5-.8l-2.4-3.8s1 0 1.7-.2c.6-.2 3.5.2 4.8.2 1.1.2 3 1.4 3 1.4l-7.5.5 7.9.2 3.5.2s-.5-1.1-1.7-2.2c-1.3-1.1-7.9-3.8-10.3-4.6-2.5-.8-7.3-1.4-7.3-1.4l-7.8-4.4s9.2-12.1 9.5-12.4 2.7-.8 3.5-2.1c.8-1.3 1.1-1.4 1.6-3s.3-1 2.9-1.7c2.4-.8 2.1-1.6 1.9-2.4s1-.3 2.5-.5c1.6-.2.5-.8.8-2.1.2-1.3 1.7-.5 3.5-1 1.7-.5 6.2.2 8.1-1.7 2.1-1.9 2.1-2.1 3.8-3.8s1.3-.6 3.8-1.3c2.5-.6 1-.3 3.3-2.1 2.4-1.7.6-1 .8-2.2.2-1.3.3-1.3.6-2.1s1-1.4 2.1-2.7.5-1.7.5-3.8c.2-2.1 0-1 1.3-2.2.8-1.4-10-12.9-12.7-12.9zm-43 71.7c-1 .5-3.2 1.1-4.4 2.1-1.4.8 0 1.3.6 3.3.6 2.1-2.9 3.5-4 4.9-1.1 1.3-1.1 2.7-1.7 3.2-.6.5-3.2.5-4.4.6-1.3.2 1.3 2.9 1.3 2.9l-3.8 3.2s-3.3.2-4.6.5c-1.3.2-8.7.5-8.7.5s1.4-2.5 2.4-4c4.6-7.3 6.8-7.5 7.2-9.1 2.1-11.9-15.9-14.5-12.7-21.8 1.3-3 2.7-4.4 2.7-4.4s1-2.1 3.2-2.7 5.6-1.3 8.4-1c2.9.5 10.3 1 15.3 1.1 4.9.2 5.9-3.2 5.9-3.2s-1.6 1.7-2.1 4-2.9 8.1-2.9 8.1l-2.4 7 8.9 4.9c-.6-.1-3.5-.4-4.2-.1z"/></g></g><g fill="#FFF"><path d="M342.9 382.4l.2-.2c0 .2-.2.2-.2.2z"/><path d="M511.4 230.2c-2.7 0-9.1-1.1-9.9-.6-1 .6-7.9.2-8.3 1-.3 1 6.5 1.7 5.4 2.2s-11.8.6-13.2 1 7.6 1 7.5 2.4c-.2 1.3-3 1.1-3.3 1.6s1.4 1.7 1 3.7c-.5 1.7-1.4 2.9-3.2 2.7-1.7-.2-7-2.1-13.5-5.1-6.5-3.2-12.9-1.3-15.6-.8-2.9.5-6.5 1.4-10.5 1.7-4 .2-9.5.8-15.3 1.1-5.7.3-16.1 4.9-19.5 6.5-3.5 1.7-11.4 10.2-11.4 10.2s-5.9 4.8-7 11.1c0 .3-.3 6.8 1.9 8.9 2.2 2.2 2.4 2.5 3.7 3.3 1.3.6-1.6 1.9-1.6 1.9l5.7-1.6s-.6 2.5-.8 4.4c-.2 1.9.8 1.4 1 1.6.2.3-.3 2.5 1.3 4.1 1.4 1.7 2.1-.5 3.2 1.1.6.8-.3 1.6-1.3 2.1 2.2-.8 6.2-2.2 6-1.9-.3.5-1 2.1-1.1 4.1-.2 2.1.2 2.4 1.4 2.9 1.3.5 1.7-1 2.5.3s4.6 8.7 3.8 9.1-4.9 2.9-8.3 6.4c-3.3 3.5-8.7 11-11.4 15.4-2.7 4.4-7.8 8.7-12.6 12.1-4.8 3.2-5.6 4.1-5.6 4.1s-3.5-7-5.9-10.5c-3.5-5.2-6-7-7.6-8.4-3-2.5-5.9-4-5.9-4s1.4-3 4.1-4.4c3.8-2.1 6.2-5.9 7.5-9.9s4-7.6 7.2-13.2c3.3-5.6 8.9-6.5 9.9-5.9 1 .8 1.3 0 2.4 3s2.1 3.3 2.1 2.5 3 1.9 3 1.9.8-1.1-.6-4.4c-1.3-3.3-4.6-5.9-5.2-6.7s-.6-1.1-.8-2.2c0-1.3-1.6-2.9-1.6-2.9s-2.1 2.2-4.1 4.3c-2.1 2.1-7.5 8.9-7.5 8.9l-10.8 9.9 17.2-18.4-12.2 11.1s-9.2 7.5-8.4 8.1c.8.8.3 1.1-1.7 2.5-2.1 1.4-.2 1.4-1.9 2.4s-6.7-1.6-6.7-1.6 2.5 3.2 2.4 2.9c-.2-.2-3.2-.6-2.4-.3.8.3 1.1 2.1 1.1 2.1l-1.4-.3s.6 2.1-.5 4.1c-1.1 2.1-4.1 2.9-4.3 1.9-.2-1-5.9-1.4-9.9-1-4.1.6-5.6.6-9.7-1.4-4.1-2.1-5.9-.6-6.4.2-.6.8-5.1 3.2-5.1 3.2l.2-2.7s-8.7 4.4-8.7 5.7-2.9 4.8-2.4 4.8 9.9-8.4 29.4-7.3c9.1.5 15.1 6.4 15.1 6.4s-4.1 12.6-2.4 19.1c1.7 6.2-1.1 14.5-6.8 16.8-6 2.5-14-4.3-13.8-1.6s.3 1.9 2.1 2.4c1.6.5 2.2.6 3.3 2.9 1 1.7.2 3-.2 3.5.2-.2.6-.5 1.9-.5 1.9-.2 2.4 1.6 2.4 1.6l-.6 3.3s5.1 0 8.3-1c3.2-1 5.2-2.9 6.4-4.8 1.1-1.9.8-4.4 1.1-6s1.6-1.4 1.6-1.4l-4.6-3s1.7-.5 3.2-1.1 3.2-3.3 3-5.1c-.2-1.9-2.2-1.7-2.2-1.7s.6-1.1.6-1.3c0-.2-.3-.6-1.3-1.7s0-2.5 0-2.5l3.8-10.2s6 5.2 8.6 13c2.4 7.9 1.9 18.6-1.3 26.2s-13.8 12.7-21.3 15.4c-7.5 2.7-18 1.4-25.9-1.7-7.9-3.2-11.6-9.5-11.6-9.5s-1.1.2-1.6.6c-.3.3-1 .8.3 3.2 1.3 2.5 6.2 5.6 10.2 7.6 4 2.1 19.2 4.3 19.2 4.3s-1.6 1.1-5.6.5c-2.9-.5-10-2.5-10-2.5l3.5 2.5 6.2 3.5s4.3.5 13-.5c8.6-1 16.7-5.6 19.9-7.2 3.2-1.6 12.2-9.2 12.1-9.2-1.4 1.3-3.8 4.4-3.8 4.4s-5.9 5.2-11.9 8.6c-6.2 3.3-18.9 5.6-18.9 5.6s7.9-.8 10.2-1.4c9.5-2.5 12.7-4.6 12.7-4.6s-3.5 3.2-4.3 3.8c-2.9 2.1-6.2 3.2-11.3 4-4 .5-8.9-.2-8.9-.2s-4-.5-3.8-.3c5.6 2.7 10.6 3.2 18.9 1.6 7.5-1.4 10.8-2.7 14.9-5.7s7.3-8.4 7.9-11c.6-2.5 2.4-4.8 3.5-6s.6-1.3.2-1.9c-.3-.6-.3-2.1-.3-2.1l1 1.3h2.5s-.5-2.1-.8-3.5 0-1.6.5-3.3c.6-1.7 1-3.3 1-3.3s6-3.7 6.4-4.3c.5-.6-3.3-1.6-3.3-1.6s1-.6 1.1-1c.3-.3 1-1.9.6-3.2-.3-1.3-2.4-1.6-1.9-2.9s1.6-.8 1.6-.8 8.6-2.5 13.2-3.8 5.9-1.7 8.7-3.5c2.9-1.9 3.8-4 4.3-4.4.5-.3 1.7-1.6 2.1-2.2.3-.8 1.6-2.4 3.3-2.7 1.7-.3 1.9-1.6 1.9-1.6l4.9 2.1.6-1.6s1.7.3 2.9-.2c1.1-.3 1.3-2.4 1.3-2.4s4.4-1 7.5 3c3.2 3.8 9.9-.6 11.6-1.3 7.3-2.5 2.5 12.1 7.2 19.1 2.7 4.1 7.6 2.9 8.9 4.8 6.4 9.4.8 10.8.8 10.8s1 1.4 1.6 2.1c.6.6-.5 2.4-.5 2.4l3.3-2.9-3.2 6.7s1.3-1.9 5.4-5.2c1.9-1.4 1.6-.2 2.9-7.8 1.3-7.6-5.1-8.1-5.1-8.1l-3.5.2V354s-4 .2-6-2.1c-2.1-2.4 1-9.9 3.3-13.5 2.2-3.8 6.4-2.4 10.3-.5 4 1.9 9.2 4.9 11.9 11 2.7 6 2.1 12.1.8 19.2-1.3 7.3-4.4 12.4-8.6 16.7-4.1 4.1-12.2 7-18.1 8.1-5.9 1-12.6 0-18.4-1.9-5.9-1.9-11-6.4-11.8-7.5-1-1.1-2.5-2.9-2.5-2.9l-1 .3s-.5.2-.8.3c-.3.2-.5.6-.5.6-.3 4.4 5.6 7.6 10.2 9.7 16.2 7.2 24.3 4.4 24.3 4.4s-4.3 1.7-7.8 1.3c-3.5-.3-11.4-2.9-11.4-2.9s1.4 1 2.1 1.4c.8.5 3.3 2.2 3.8 2.5.5.2 3.5 1.4 5.4 1.7 4.9.6 10 0 21.1-3.3 12.1-3.5 21.6-13.5 22.9-14.8l-6.5 7.2s-4.1 3-7.3 5.1c-9.4 6-19.7 7.6-19.7 7.6s3.7-.5 6.4-.8c2.9-.3 15.7-6.2 15.7-6.2l-5.6 3.2s-4 2.1-5.7 2.7-6.7 1.9-9.9 2.1c-3.2.2-6.5-.2-6.5-.2l-2.7-.2s1.9 1.7 7.5 2.4c5.6.6 6 .8 13-.5s13.7-4.4 17.6-8.6c4-4.1 4.9-8.9 5.2-9.7.3-1 .5-1.9 1.4-2.9s.3-.5 1.3-1.9.2-1.1-.2-2.2c-.3-1.1-.2-.5.5-2.1.6-1.4 1.1-1.7 2.1-3.5 1-1.7.2-1.6.2-3s1.3-1.7 1.7-2.4c.5-.6 5.9-3.5 5.9-3.5s-1.1-.2-1.7-.6c-.6-.3-1.1-.5-1.6-1s1-1 1.6-1.7c.5-1 .8-1.3 1-2.1.2-.8-1.4-1.4-2.1-2.4-.6-1 .3-1.3.2-3.5-.2-2.2-3.2-6.2-3.5-7.6-.5-1.4-4.8-7.8-5.7-7.9-1-.2-6.5-4-7.3-4.3s-5.2-4.3-7.3-5.6c-2.1-1.3-4.6-4.3-6.4-4.4-1.7-.2-4.9-1.7-4.9-1.7s.2-1.3.3-2.5c.3-1.3.2-2.4.6-3.8.5-1.4 3.3-2.4 6.8-3.5 3.5-1.3 17.2-3 17.2-3s2.1.5 3.7 1c1.6.6 5.4 2.9 5.4 2.9s-.3-1-.3-1.3c0-.5-1.3-2.4-3.2-4.3s-3.7-1.7-6.5-2.2c-2.9-.6-7.5-.8-7.5-.8l-2.4-3.8s1 0 1.7-.2c.6-.2 3.5.2 4.6.2 1.1.2 3 1.4 3 1.4l-7.5.5 7.9.2 3.5.2s-.5-1.1-1.7-2.2c-1.3-1.1-7.9-3.8-10.3-4.6-2.5-.8-7.3-1.4-7.3-1.4l-7.8-4.4s9.2-12.1 9.5-12.4 2.7-.8 3.5-2.1c.8-1.3 1.1-1.4 1.6-3s.3-1 2.9-1.7c2.4-.8 2.1-1.6 1.9-2.4s1-.3 2.5-.5c1.6-.2.5-.8.8-2.1.2-1.3 1.7-.5 3.5-1 1.7-.5 6.2.2 8.1-1.7 2.1-1.9 2.1-2.1 3.8-3.8 1.7-1.7 1.3-.6 3.8-1.3 2.4-.6 1-.3 3.3-2.1 2.4-1.7.6-1 .8-2.2s.3-1.3.6-2.1 1-1.4 2.1-2.7.5-1.7.5-3.8c.2-2.1 0-1 1.3-2.2.5-1.3-10.2-12.7-12.9-12.7zm-43.2 71.6c-1 .5-3.2 1.1-4.4 2.1-1.4.8 0 1.3.6 3.3.6 2.1-2.9 3.5-4 4.9-1.1 1.3-1.1 2.7-1.7 3.2s-3.2.5-4.4.6c-1.3.2 1.3 2.9 1.3 2.9l-3.8 3.2s-3.3.2-4.6.5c-1.3.2-8.7.5-8.7.5s1.4-2.5 2.5-4c4.6-7.3 6.8-7.5 7.2-9.1 2.1-11.9-15.9-14.5-12.7-21.8 1.3-3 2.7-4.4 2.7-4.4s1-2.1 3.2-2.7 5.6-1.3 8.4-1c2.9.5 10.3 1 15.3 1.1 4.9.2 5.7-3.2 5.7-3.2s-1.6 1.6-2.1 4c-.5 2.2-2.9 8.1-2.9 8.1l-2.4 7 8.9 4.9c-.3-.1-3.2-.5-4.1-.1zM277.5 382.3l.2-.2-.2.2z"/><path d="M445.9 230c-2.7 0-9.1-1.1-9.9-.6-1 .6-7.9.2-8.3 1-.3 1 6.5 1.7 5.4 2.2s-11.8.6-13.2 1c-1.6.3 7.5 1 7.5 2.4-.2 1.3-3 1.1-3.3 1.6s1.4 1.7 1 3.7c-.5 1.7-1.4 2.9-3.2 2.7-1.6-.2-7-2.1-13.5-5.1-6.5-3.2-12.9-1.3-15.6-.8-2.9.5-6.5 1.4-10.5 1.7-4 .2-9.5.8-15.3 1.1-5.7.3-16.1 4.9-19.5 6.5-3.5 1.7-11.4 10.2-11.4 10.2s-5.9 4.8-7 11.1c0 .3-.3 6.8 1.9 8.9 2.2 2.2 2.4 2.5 3.7 3.3 1.3.6-1.6 1.9-1.6 1.9l5.7-1.6s-.6 2.5-.8 4.4.8 1.4 1 1.6c.2.3-.3 2.5 1.3 4.1 1.4 1.7 2.1-.5 3.2 1.1.6.8-.3 1.6-1.3 2.1 2.2-.8 6.2-2.2 6-1.9-.3.5-1 2.1-1.1 4.1-.2 2.1.2 2.4 1.4 2.9 1.3.5 1.7-1 2.5.3s4.6 8.7 3.8 9.1c-.8.3-4.9 2.9-8.3 6.4-3.3 3.5-8.7 11-11.4 15.4-2.7 4.4-7.8 8.7-12.6 12.1-4.8 3.2-5.6 4.1-5.6 4.1s-3.5-7-5.9-10.5c-3.5-5.2-6-7-7.6-8.4-3-2.5-5.9-4-5.9-4s1.4-3 4.1-4.4c3.8-2.1 6.2-5.9 7.5-9.9s4-7.6 7.2-13.2c3.3-5.6 8.9-6.5 9.9-5.9 1 .8 1.3 0 2.4 3s2.1 3.3 2.1 2.5 3 1.9 3 1.9.8-1.1-.5-4.4-4.6-5.9-5.2-6.7c-.6-.8-.6-1.1-.8-2.2-.2-1-1.7-2.7-1.7-2.7s-2.1 2.2-4.1 4.3c-2.1 2.1-7.5 8.9-7.5 8.9l-10.8 9.9 17.2-18.4-12.3 11.1s-9.2 7.5-8.4 8.1c.8.8.3 1.1-1.7 2.5-2.1 1.4-.2 1.4-1.9 2.4s-6.7-1.6-6.7-1.6 2.5 3.2 2.4 2.9c-.2-.2-3.2-.6-2.4-.3.8.3 1.1 2.1 1.1 2.1l-1.4-.3s.6 2.1-.5 4.1c-1.1 2.1-4.1 2.9-4.3 1.9s-5.9-1.4-9.9-1c-4.1.6-5.6.6-9.7-1.4-4.1-2.1-5.9-.6-6.4.2-.6.8-5.1 3.2-5.1 3.2l.2-2.7s-8.7 4.4-8.7 5.7-2.9 4.8-2.4 4.8 9.9-8.4 29.4-7.3c9.1.5 15.1 6.4 15.1 6.4s-4.1 12.6-2.4 19.1c1.7 6.2-1.1 14.5-6.8 16.8-6 2.5-14-4.3-13.8-1.6.2 2.7.3 1.9 2.1 2.4 1.6.5 2.2.6 3.3 2.9 1 1.7.2 3-.2 3.5.2-.2.6-.5 1.9-.5 1.9-.2 2.4 1.6 2.4 1.6l-.6 3.3s5.1 0 8.3-1c3.2-1 5.2-2.9 6.4-4.8 1.1-1.9.8-4.4 1.1-6s1.6-1.4 1.6-1.4l-4.6-3s1.7-.5 3.2-1.1c1.4-.8 3.2-3.3 3-5.1-.2-1.9-2.2-1.7-2.2-1.7s.6-1.1.6-1.3c0-.2-.3-.6-1.3-1.9-1-1.1 0-2.5 0-2.5l3.8-10.2s6 5.2 8.6 13c2.4 7.9 1.9 18.6-1.3 26.2S286 387 278.5 389.7c-7.5 2.5-18 1.4-25.9-1.7-7.9-3.2-11.6-9.5-11.6-9.5s-1.1.2-1.6.6c-.3.3-1 .8.3 3.2 1.3 2.5 6.2 5.6 10.2 7.6 4 2.1 19.2 4.3 19.2 4.3s-1.6 1.1-5.6.5c-2.9-.5-10-2.5-10-2.5l3.5 2.5 6.2 3.5s4.3.5 13-.5c8.6-1 16.7-5.6 19.9-7.2s12.2-9.2 12.1-9.2c-1.4 1.3-3.8 4.4-3.8 4.4s-5.9 5.2-11.9 8.6c-6.2 3.3-18.9 5.6-18.9 5.6s7.9-.8 10.2-1.4c9.5-2.5 12.7-4.6 12.7-4.6s-3.5 3.2-4.3 3.8c-2.9 2.1-6.2 3.2-11.3 4-4 .5-8.9-.2-8.9-.2s-4-.5-3.8-.3c5.6 2.7 10.6 3.2 18.9 1.6 7.5-1.4 10.8-2.7 14.9-5.7s7.3-8.4 7.9-11 2.4-4.8 3.5-6c1.1-1.3.6-1.3.2-1.9-.3-.6-.3-2.1-.3-2.1l1 1.3h2.5s-.5-2.1-.8-3.5 0-1.6.5-3.3c.6-1.7 1-3.3 1-3.3s6-3.7 6.4-4.3c.5-.6-3.3-1.6-3.3-1.6s1-.6 1.1-1c.3-.3 1-1.9.6-3.2s-2.4-1.6-1.9-2.9 1.6-.8 1.6-.8 8.6-2.5 13.3-3.8c4.6-1.3 5.9-1.7 8.7-3.5 2.9-1.9 3.8-4 4.3-4.4.5-.3 1.7-1.6 2.1-2.2.3-.8 1.6-2.4 3.3-2.7 1.7-.3 1.9-1.6 1.9-1.6l4.9 2.1.6-1.6s1.7.3 2.9-.2c1.1-.3 1.3-2.4 1.3-2.4s4.4-1 7.5 2.9c3.2 3.8 9.9-.6 11.6-1.3 7.3-2.5 2.5 12.1 7.2 19.1 2.7 4.1 7.6 2.9 8.9 4.8 6.4 9.4.8 10.8.8 10.8s1 1.4 1.6 2.1c.6.6-.5 2.4-.5 2.4l3.3-2.9-3.2 6.7s1.3-1.9 5.4-5.2c1.9-1.4 1.6-.2 2.9-7.8s-5.1-8.1-5.1-8.1l-3.5.2v-3.2s-4 .2-6-2.1c-2.1-2.4 1-9.9 3.3-13.5 2.2-3.8 6.4-2.4 10.3-.5 4 1.9 9.2 4.9 11.9 11 2.7 6 2.1 12.1.8 19.2-1.3 7.3-4.4 12.4-8.6 16.7-4.1 4.1-12.2 7-18.1 8.1-5.9 1-12.6 0-18.4-1.9-5.9-1.9-10.8-6.4-11.8-7.5S363 380 363 380l-1 .3s-.5.2-.8.3c-.3.2-.5.6-.5.6-.3 4.4 5.6 7.6 10.2 9.9 16.2 7.2 24.3 4.4 24.3 4.4s-4.3 1.7-7.8 1.3c-3.4-.2-11.4-2.8-11.4-2.8s1.3 1 2.1 1.4c.8.5 3.3 2.2 3.8 2.5.5.2 3.5 1.4 5.4 1.7 4.9.6 10 0 21.1-3.3 12.1-3.5 21.6-13.5 22.9-14.8l-6.5 7.2s-4.1 3-7.3 5.1c-9.4 6-19.7 7.6-19.7 7.6s3.7-.5 6.4-.8c2.9-.3 15.7-6.2 15.7-6.2l-5.6 3.2s-4 2.1-5.7 2.9c-1.7.6-6.7 1.9-9.9 2.1-3.2.2-6.5-.2-6.5-.2l-2.7-.2s1.9 1.7 7.5 2.4 6 .8 12.9-.5c7-1.3 13.7-4.4 17.6-8.6 4-4.1 4.9-8.9 5.2-9.7.3-1 .5-1.9 1.4-2.9.8-1 .3-.5 1.3-1.9s.2-1.1-.2-2.2c-.3-1.1-.2-.6.5-2.1.6-1.4 1.1-1.7 2.1-3.5 1-1.7.2-1.6.2-3s1.3-1.7 1.7-2.4c.5-.5 5.9-3.5 5.9-3.5s-1.1-.2-1.7-.6c-.6-.3-1.1-.5-1.6-.8-.5-.5 1-1 1.6-1.7.5-1 .8-1.3 1-2.1.2-.8-1.4-1.4-2.1-2.4-.6-1 .3-1.3.2-3.5-.2-2.2-3.2-6.2-3.5-7.6-.5-1.4-4.8-7.8-5.7-7.9-1-.2-6.5-4-7.3-4.3s-5.2-4.3-7.3-5.6c-2.1-1.3-4.6-4.3-6.4-4.4-1.7-.2-4.9-1.7-4.9-1.7s.2-1.3.3-2.5c.3-1.3.2-2.4.6-3.8.5-1.4 3.3-2.4 6.8-3.5 3.5-1.3 17.2-3 17.2-3s2.1.5 3.7 1c1.6.6 5.4 2.9 5.4 2.9s-.3-1-.3-1.3c0-.5-1.3-2.4-3.2-4.3s-3.7-1.7-6.5-2.2c-2.9-.6-7.5-.8-7.5-.8l-2.4-3.8s1 0 1.7-.2c.6-.2 3.5.2 4.6.2 1.1.2 3 1.4 3 1.4l-7.5.5 7.9.2 3.5.2s-.5-1.1-1.7-2.2c-1.3-1.1-7.9-3.8-10.3-4.6-2.5-.8-7.3-1.4-7.3-1.4l-7.8-4.4s9.2-12.1 9.5-12.4 2.7-.8 3.5-2.1c.8-1.3 1.1-1.4 1.6-3s.3-1 2.9-1.7c2.4-.8 2.1-1.6 1.9-2.4s1-.3 2.5-.5c1.6-.2.5-.8.8-2.1.2-1.3 1.7-.5 3.5-1 1.7-.5 6.2.2 8.1-1.7 2.1-1.9 2.1-2.1 3.8-3.8 1.7-1.7 1.3-.6 3.8-1.3s1-.3 3.3-2.1.6-1 .8-2.2c.2-1.3.3-1.3.6-2.1s1-1.4 2.1-2.7.5-1.7.5-3.8c.2-2.1 0-1 1.4-2.2.6-1.5-10.2-13-12.8-13zm-43.2 71.7c-1 .5-3.2 1.1-4.4 2.1-1.4.8 0 1.3.6 3.3.6 2.1-2.9 3.5-4 4.9-1.1 1.3-1.1 2.7-1.7 3.2s-3.2.5-4.4.6c-1.3.2 1.3 2.9 1.3 2.9l-3.8 3.2s-3.3.2-4.6.5c-1.3.2-8.7.5-8.7.5s1.4-2.5 2.4-4c4.6-7.3 6.8-7.5 7.2-9.1 2.1-11.9-15.9-14.5-12.7-21.8 1.3-3 2.7-4.4 2.7-4.4s1-2.1 3.2-2.7 5.6-1.3 8.4-1c2.9.5 10.3 1 15.3 1.1 4.9.2 5.9-3.2 5.9-3.2s-1.6 1.7-2.1 4c-.5 2.2-2.9 8.1-2.9 8.1l-2.5 7 8.9 4.9c-.4-.1-3.3-.6-4.1-.1z"/><g><path d="M207.2 381.5l.2-.2-.2.2zM375.5 229.2c-2.7 0-9.1-1.1-9.9-.6-1 .6-7.9.2-8.3 1-.3 1 6.5 1.7 5.4 2.2s-11.8.6-13.2 1c-1.4.3 7.6 1 7.5 2.4-.2 1.3-3 1.1-3.3 1.6-.3.6 1.4 1.7 1 3.7-.5 1.7-1.4 2.9-3.2 2.7-1.7-.2-7-2.1-13.5-5.1-6.5-3.2-12.9-1.3-15.6-.8-2.9.5-6.5 1.4-10.5 1.7-4 .2-9.5.8-15.3 1.1-5.7.3-16.1 4.9-19.5 6.5-3.5 1.7-11.4 10.2-11.4 10.2s-5.9 4.8-7 11.1c0 .3-.3 6.8 1.9 8.9 2.2 2.2 2.4 2.5 3.7 3.3 1.3.6-1.6 1.9-1.6 1.9l5.7-1.6s-.6 2.5-.8 4.4.8 1.4 1 1.6c.2.3-.3 2.5 1.3 4.1 1.4 1.7 2.1-.5 3.2 1.1.6.8-.3 1.6-1.3 2.1 2.2-.8 6.2-2.2 6-1.9-.3.5-1 2.1-1.1 4.1-.2 2.1.2 2.4 1.4 2.9 1.3.5 1.7-1 2.5.3s4.6 8.7 3.8 9.1c-.8.3-4.9 3-8.3 6.4-3.3 3.5-8.7 11-11.4 15.4s-7.8 8.7-12.6 12.1c-4.8 3.2-5.6 4.1-5.6 4.1s-3.5-7-5.9-10.5c-3.5-5.2-6-7-7.6-8.4-3-2.5-5.9-4-5.9-4s1.4-3 4.1-4.4c3.8-2.1 6.2-5.9 7.5-9.9s4-7.6 7.2-13.2c3.3-5.6 8.9-6.5 9.9-5.9 1 .8 1.3 0 2.4 3s2.1 3.3 2.1 2.5 3 1.9 3 1.9.8-1.1-.6-4.4c-1.3-3.3-4.6-5.9-5.2-6.7-.6-.8-.6-1.1-.8-2.2-.2-1-1.7-2.7-1.7-2.7s-2.1 2.2-4.1 4.3-7.5 8.9-7.5 8.9l-10.8 9.9 17.2-18.4-12.2 11.1s-9.2 7.5-8.4 8.1c.8.8.3 1.1-1.7 2.5s-.2 1.4-1.9 2.4-6.7-1.6-6.7-1.6 2.5 3.2 2.4 2.9c-.2-.2-3.2-.6-2.4-.3.8.3 1.1 2.1 1.1 2.1l-1.4-.3s.6 2.1-.5 4.1c-1.1 2.1-4.1 2.9-4.3 1.9s-5.9-1.4-9.9-1c-4.1.6-5.6.6-9.7-1.4-4.1-2.1-5.9-.6-6.4.2-.6.8-5.1 3.2-5.1 3.2l.2-2.7s-8.7 4.4-8.7 5.7c0 1.4-2.9 4.8-2.4 4.8s9.9-8.4 29.4-7.3c9.1.5 15.1 6.4 15.1 6.4s-4.1 12.6-2.4 19.1c1.7 6.2-1.1 14.5-6.8 16.8-6 2.5-14-4.3-13.8-1.6.2 2.7.3 1.9 2.1 2.4 1.6.5 2.2.6 3.3 2.9 1 1.7.2 3-.2 3.5.2-.2.6-.5 1.9-.5 1.9-.2 2.4 1.6 2.4 1.6l-.6 3.3s5.1 0 8.3-1 5.2-2.9 6.4-4.8c1.1-1.9.8-4.4 1.1-6s1.6-1.4 1.6-1.4l-4.6-3s1.7-.5 3.2-1.1 3.2-3.3 3-5.1c-.2-1.9-2.2-1.7-2.2-1.7s.6-1.1.6-1.3-.3-.6-1.3-1.7 0-2.5 0-2.5l3.8-10.2s6 5.2 8.6 13c2.4 7.9 1.9 18.6-1.3 26.2s-13.8 12.7-21.3 15.4-18 1.4-25.9-1.7c-7.9-3.2-11.6-9.5-11.6-9.5s-1.1.2-1.6.6c-.3.3-1 .8.3 3.2 1.3 2.5 6.2 5.6 10.2 7.6 4 2.1 19.2 4.3 19.2 4.3s-1.6 1.1-5.6.5c-2.9-.5-10-2.5-10-2.5l3.5 2.5 6.2 3.5s4.3.5 13-.5c8.6-1 16.7-5.6 19.9-7.2s12.2-9.2 12.1-9.2c-1.4 1.3-3.8 4.4-3.8 4.4s-5.9 5.2-11.9 8.6c-6.2 3.3-18.9 5.6-18.9 5.6s7.9-.8 10.2-1.4c9.5-2.5 12.7-4.6 12.7-4.6s-3.5 3.2-4.3 3.8c-2.9 2.1-6.2 3.2-11.3 4-4 .5-8.9-.2-8.9-.2s-4-.5-3.8-.3c5.6 2.7 10.6 3.2 18.9 1.6 7.5-1.4 10.8-2.7 14.9-5.7s7.3-8.4 7.9-11c.6-2.5 2.4-4.8 3.5-6 1.1-1.3.6-1.3.2-1.9-.3-.6-.3-2.1-.3-2.1l1 1.3h2.5s-.5-2.1-.8-3.5 0-1.6.5-3.3c.6-1.7 1-3.3 1-3.3s6-3.7 6.4-4.3c.5-.6-3.3-1.6-3.3-1.6s1-.6 1.1-1c.3-.3 1-1.9.6-3.2-.3-1.3-2.4-1.6-1.9-2.9s1.4-.8 1.4-.8 8.6-2.5 13.3-3.8c4.6-1.3 5.9-1.7 8.7-3.5 2.9-1.9 3.8-4 4.3-4.4.5-.3 1.7-1.6 2.1-2.2.3-.8 1.6-2.4 3.3-2.7 1.7-.3 1.9-1.6 1.9-1.6l4.9 2.1.6-1.4s1.7.3 2.9-.2c1.1-.3 1.3-2.4 1.3-2.4s4.4-1 7.5 3c3.2 3.8 9.9-.6 11.6-1.3 7.3-2.5 2.5 12.1 7.2 19.1 2.7 4.1 7.6 2.9 8.9 4.8 6.4 9.4.8 10.8.8 10.8s1 1.4 1.6 2.1c.5.6-.5 2.4-.5 2.4l3.3-2.9-3.2 6.7s1.3-1.9 5.4-5.2c1.9-1.4 1.6-.2 2.9-7.8s-5.1-8.1-5.1-8.1l-3.5.2V353s-4 .2-6-2.1c-2.1-2.4 1-9.9 3.3-13.5 2.2-3.8 6.4-2.4 10.3-.5s9.2 4.9 11.9 11c2.7 6 2.1 12.1.8 19.2-1.3 7.3-4.4 12.4-8.6 16.7-4.1 4.1-12.2 7-18.1 8.1-5.9 1-12.6 0-18.4-1.9-5.9-1.9-11-6.4-11.8-7.5-1-1.1-2.5-2.9-2.5-2.9l-1 .3s-.5.2-.8.3c-.3.2-.5.6-.5.6-.3 4.4 5.6 7.6 10.2 9.7 16.2 7.2 24.3 4.4 24.3 4.4s-4.3 1.7-7.8 1.3c-3.5-.3-11.4-2.9-11.4-2.9s1.4 1 2.1 1.4c.8.5 3.3 2.2 3.8 2.5.5.2 3.5 1.4 5.4 1.7 4.9.6 10 0 21.1-3.3 12.1-3.5 21.6-13.5 22.9-14.8l-6.5 7.2s-4.1 3-7.3 5.1c-9.4 6-19.7 7.6-19.7 7.6s3.7-.5 6.4-.8c2.9-.3 15.7-6.2 15.7-6.2l-5.6 3.2s-4 2.1-5.7 2.7-6.7 1.9-9.9 2.1c-3.2.2-6.5-.2-6.5-.2l-2.7-.2s1.9 1.7 7.5 2.4c5.6.6 6 .8 13-.5s13.7-4.4 17.6-8.6c4-4.1 4.9-8.9 5.2-9.7.3-1 .5-1.9 1.3-2.9 1-1 .3-.5 1.3-1.9s.2-1.1-.2-2.2c-.3-1.1-.2-.5.5-2.1.6-1.4 1.1-1.7 2.1-3.5 1-1.7.2-1.6.2-3s1.3-1.7 1.7-2.4c.5-.5 5.9-3.5 5.9-3.5s-1.1-.2-1.7-.6c-.6-.3-1.1-.5-1.6-.8-.5-.5 1-1 1.6-1.7.5-1 .8-1.3 1-2.1.2-.8-1.4-1.4-2.1-2.4s.3-1.3.2-3.5c-.2-2.2-3.2-6.2-3.7-7.6s-4.8-7.8-5.7-7.9c-1-.2-6.5-4-7.3-4.3s-5.2-4.3-7.3-5.6c-2.1-1.3-4.6-4.3-6.4-4.4-1.7-.2-4.9-1.7-4.9-1.7s.2-1.3.3-2.5c.3-1.3.2-2.4.6-3.8.5-1.4 3.3-2.4 6.8-3.5 3.5-1.3 17.2-3 17.2-3s2.1.5 3.7 1c1.6.6 5.4 2.9 5.4 2.9s-.3-1-.3-1.3c0-.5-1.3-2.4-3.2-4.3-1.9-1.9-3.7-1.7-6.5-2.2-2.9-.6-7.5-.8-7.5-.8l-2.4-3.8s1 0 1.7-.2c.6-.2 3.5.2 4.6.2 1.1.2 3 1.4 3 1.4l-7.6.2 7.9.2 3.5.2s-.5-1.1-1.7-2.2c-1.3-1.1-7.9-3.8-10.3-4.6-2.5-.8-7.3-1.4-7.3-1.4l-7.8-4.4s9.2-12.1 9.5-12.4 2.7-.8 3.5-2.1c1-1.3 1.1-1.4 1.6-3s.3-1 2.9-1.7c2.4-.8 2.1-1.6 1.9-2.4s1-.3 2.5-.5c1.6-.2.5-.8.8-2.1.2-1.3 1.7-.5 3.5-1 1.7-.5 6.2.2 8.1-1.7 2.1-1.9 2.1-2.1 3.8-3.8 1.7-1.7 1.3-.6 3.8-1.3s1-.3 3.3-2.1.6-1 .8-2.2c.2-1.3.3-1.3.6-2.1s1-1.3 2.1-2.7.5-1.7.5-3.8c.2-2.1 0-1 1.3-2.2 1.1-1.1-9.6-12.6-12.3-12.6zm-43.2 71.7c-1 .5-3.2 1.1-4.4 2.1-1.4.8 0 1.3.6 3.3.6 2.1-2.9 3.5-4 4.9-1.1 1.3-1.1 2.7-1.7 3.2s-3.2.5-4.4.6c-1.3.2 1.3 2.9 1.3 2.9l-3.8 3.2s-3.3.2-4.6.5c-1.3.2-8.7.5-8.7.5s1.4-2.5 2.4-4c4.6-7.3 6.8-7.5 7.2-9.1 2.1-11.9-15.9-14.5-12.7-21.8 1.3-3 2.7-4.4 2.7-4.4s1-2.1 3.2-2.7 5.6-1.3 8.4-1c2.9.5 10.3 1 15.3 1.1 4.9.2 5.7-3.2 5.7-3.2s-1.6 1.7-2.1 4c-.5 2.2-2.9 8.1-2.9 8.1l-2.5 7 8.9 4.9c-.1-.1-2.9-.4-3.9-.1z"/></g><g><path d="M141.1 381.9l.2-.2c-.2.1-.2.2-.2.2z"/><path d="M309.4 229.5c-2.7 0-9.1-1.1-9.9-.6-1 .6-7.9.2-8.3 1-.3 1 6.5 1.7 5.4 2.2s-11.8.6-13.2 1c-1.4.3 7.6 1 7.5 2.4-.2 1.3-3 1.1-3.3 1.6s1.4 1.7 1 3.7c-.5 1.7-1.4 2.9-3.2 2.7-1.6-.2-7-2.1-13.5-5.1-6.5-3.2-12.9-1.3-15.6-.8-2.9.5-6.5 1.4-10.5 1.7-4 .2-9.5.8-15.3 1.1-5.7.3-16.1 4.9-19.5 6.5-3.5 1.7-11.4 10.2-11.4 10.2s-5.9 4.8-7 11.1c0 .3-.3 6.8 1.9 8.9 2.2 2.2 2.4 2.5 3.7 3.3 1.3.6-1.6 1.9-1.6 1.9l5.7-1.6s-.6 2.5-.8 4.4.8 1.4 1 1.6c.2.3-.3 2.5 1.3 4.1 1.4 1.7 2.1-.5 3.2 1.1.6.8-.3 1.6-1.3 2.1 2.2-.8 6.2-2.2 6-1.9-.3.5-1 2.1-1.1 4.1-.2 2.1.2 2.4 1.4 2.9 1.3.5 1.7-1 2.5.3s4.6 8.7 3.8 9.1-4.9 2.9-8.3 6.4c-3.3 3.5-8.7 11-11.4 15.4s-7.8 8.7-12.6 12.1c-4.8 3.2-5.6 4.1-5.6 4.1s-3.5-7-5.9-10.5c-3.5-5.2-6-7-7.6-8.4-3-2.5-5.9-4-5.9-4s1.4-3 4.1-4.4c3.8-2.1 6.2-5.9 7.5-9.9s4-7.6 7.2-13.2c3.3-5.6 8.9-6.5 9.9-5.9 1 .8 1.3 0 2.4 3 1.1 3 2.1 3.3 2.1 2.5s3 1.9 3 1.9.8-1.1-.6-4.4c-1.3-3.3-4.6-5.9-5.2-6.7s-.6-1.1-.8-2.2c-.2-1-1.6-2.7-1.6-2.7s-2.1 2.2-4.1 4.3c-2.1 2.1-7.5 8.9-7.5 8.9l-10.8 9.9 17.2-18.4-12.2 11.1s-9.2 7.5-8.4 8.1c.8.8.3 1.1-1.7 2.5-2.1 1.4-.2 1.4-1.9 2.4s-6.7-1.6-6.7-1.6 2.5 3.2 2.4 2.9c-.2-.2-3.2-.6-2.4-.3.8.3 1.1 2.1 1.1 2.1l-1.4-.3s.6 2.1-.5 4.1c-1.1 2.1-4.1 2.9-4.3 1.9s-5.7-1.4-9.9-1c-4.1.6-5.6.6-9.7-1.4-4.1-2.1-5.9-.6-6.4.2-.6.8-5.1 3.2-5.1 3.2l.2-2.7s-8.7 4.4-8.7 5.7-2.9 4.8-2.4 4.8 9.9-8.4 29.4-7.3c9.1.5 15.1 6.4 15.1 6.4s-4.1 12.6-2.4 19.1c1.7 6.2-1.1 14.5-6.8 16.8-6 2.5-14-4.3-13.8-1.6.2 2.7.3 1.9 2.1 2.4 1.6.5 2.2.6 3.3 2.9 1 1.7.2 3-.2 3.5.2-.2.6-.5 1.9-.5 1.9-.2 2.4 1.6 2.4 1.6l-.6 3.3s5.1 0 8.3-1 5.2-2.9 6.4-4.8c1.1-1.9.8-4.4 1.1-6s1.6-1.4 1.6-1.4l-4.6-3s1.7-.5 3.2-1.1c1.4-.8 3.2-3.3 3-5.1-.3-1.6-2.4-1.4-2.4-1.4s.6-1.1.6-1.3c0-.2-.3-.6-1.3-1.9-1-1.1 0-2.5 0-2.5l3.8-10.2s6 5.2 8.6 13c2.4 7.9 1.9 18.6-1.3 26.2s-13.8 12.7-21.3 15.4c-7.5 2.7-18 1.4-25.9-1.7s-11.6-9.5-11.6-9.5-1.1.2-1.6.6c-.3.3-1 .8.3 3.2 1.3 2.5 6.2 5.6 10.2 7.6s19.2 4.3 19.2 4.3-1.6 1.1-5.6.5c-2.9-.5-10-2.5-10-2.5l3.5 2.5 6.2 3.5s4.3.5 13-.5c8.6-1 16.7-5.6 19.9-7.2s12.2-9.2 12.1-9.2c-1.4 1.3-3.8 4.4-3.8 4.4s-5.9 5.2-11.9 8.6c-6.2 3.3-18.9 5.6-18.9 5.6s7.9-.8 10.2-1.4c9.5-2.5 12.7-4.6 12.7-4.6s-3.5 3.2-4.3 3.8c-2.9 2.1-6.2 3.2-11.3 4-4 .5-8.9-.2-8.9-.2s-4-.5-3.8-.3c5.6 2.7 10.6 3.2 18.9 1.6 7.5-1.4 10.8-2.7 14.9-5.7s7.3-8.4 7.9-11c.6-2.5 2.4-4.8 3.5-6 1.1-1.3.6-1.3.2-1.9-.3-.6-.3-2.1-.3-2.1l1 1.3h2.5s-.5-2.1-.8-3.5 0-1.6.5-3.3c.6-1.7 1-3.3 1-3.3s6-3.7 6.4-4.3c.5-.6-3.3-1.6-3.3-1.6s1-.6 1.1-1c.3-.3 1-1.9.6-3.2s-2.4-1.6-1.9-2.9 1.6-.8 1.6-.8 8.6-2.5 13.3-3.8c4.6-1.3 5.9-1.7 8.7-3.5 2.9-1.9 3.8-4 4.3-4.4.5-.3 1.7-1.6 2.1-2.2.3-.8 1.6-2.4 3.3-2.7s1.9-1.6 1.9-1.6l4.9 2.1.6-1.6s1.7.3 2.9-.2c1.1-.3 1.3-2.4 1.3-2.4s4.4-1 7.5 2.9c3.2 3.8 9.9-.6 11.6-1.3 7.3-2.5 2.5 12.1 7.2 19.1 2.7 4.3 7.6 2.9 8.9 4.8 6.4 9.4.8 10.8.8 10.8s1 1.4 1.6 2.1c.6.6-.5 2.4-.5 2.4l3.3-2.9-3.2 6.7s1.3-1.9 5.4-5.2c1.9-1.4 1.6-.2 2.9-7.8 1.3-7.6-5.1-8.1-5.1-8.1l-3.5.2v-3.2s-4 .2-6-2.1c-2.1-2.4 1-9.9 3.3-13.5 2.2-3.8 6.4-2.4 10.3-.5 4 1.9 9.2 4.9 11.9 11 2.7 6 2.1 12.1.8 19.2-1.3 7.3-4.4 12.4-8.6 16.7-4.1 4.1-12.2 7-18.1 8.1-5.9 1-12.6 0-18.4-1.9-5.9-1.9-11-6.4-11.8-7.5-1-1.1-2.5-2.9-2.5-2.9l-1 .3s-.5.2-.8.3c-.3.2-.5.6-.5.6-.3 4.4 5.6 7.6 10.2 9.9 16.2 7.2 24.3 4.4 24.3 4.4s-4.3 1.7-7.8 1.3c-3.5-.3-11.4-2.9-11.4-2.9s1.3 1 2.1 1.4c.8.5 3.3 2.2 3.8 2.5.5.2 3.5 1.4 5.4 1.7 4.9.6 10 0 21.1-3.3 12.1-3.5 21.6-13.5 22.9-14.8l-6.5 7.2s-4.1 3-7.3 5.1c-9.4 6-19.7 7.6-19.7 7.6s3.7-.5 6.4-.8c2.9-.3 15.7-6.2 15.7-6.2l-5.6 3.2s-4 2.1-5.7 2.7-6.7 1.9-9.9 2.1c-3.2.2-6.5-.2-6.5-.2l-2.7-.2s1.9 1.7 7.5 2.4c5.6.6 6 .8 13-.5 6.8-1.3 13.7-4.4 17.6-8.6 4-4.1 4.9-8.9 5.2-9.7.3-1 .5-1.9 1.4-2.9s.3-.5 1.3-1.9.2-1.1-.2-2.2c-.3-1.1-.2-.5.5-2.1.6-1.4 1.1-1.7 2.1-3.5 1-1.7.2-1.6.2-3s1.3-1.7 1.7-2.4c.5-.5 5.9-3.5 5.9-3.5s-1.1-.2-1.7-.6c-.6-.3-1.1-.5-1.6-1s1-1 1.6-1.7c.5-1 .8-1.3 1-2.1.2-.8-1.4-1.4-2.1-2.4-.6-1 .3-1.3.2-3.5-.2-2.2-3.2-6.2-3.5-7.6-.5-1.4-4.8-7.8-5.7-7.9-1-.2-6.5-4-7.3-4.3s-5.2-4.3-7.3-5.6c-2.1-1.3-4.6-4.3-6.4-4.4-1.7-.2-4.9-1.7-4.9-1.7s.2-1.3.3-2.5c.3-1.3.2-2.4.6-3.8.5-1.4 3.3-2.4 6.8-3.5 3.5-1.3 17.2-3 17.2-3s2.1.5 3.7 1c1.6.6 5.4 2.9 5.4 2.9s-.3-1-.3-1.3c0-.5-1.3-2.4-3.2-4.3-1.9-1.9-3.7-1.7-6.5-2.2-2.9-.6-7.5-.8-7.5-.8l-2.4-3.8s1 0 1.6-.2 3.5.2 4.8.2c1.1.2 3 1.4 3 1.4l-7.5.5 7.9.2 3.5.2s-.5-1.1-1.7-2.2c-1.3-1.1-7.9-3.8-10.3-4.6-2.5-.8-7.3-1.4-7.3-1.4l-7.8-4.4s9.2-12.1 9.5-12.4 2.7-.8 3.5-2.1c.8-1.3 1.1-1.4 1.6-3s.3-1 2.9-1.7c2.4-.8 2.1-1.6 1.9-2.4s1-.3 2.5-.5c1.6-.2.5-.8.8-2.1.2-1.3 1.7-.5 3.5-1 1.7-.5 6.2.2 8.1-1.7 2.1-1.9 2.1-2.1 3.8-3.8 1.7-1.7 1.3-.6 3.8-1.3 2.5-.6 1-.3 3.3-2.1s.6-1 .8-2.2.3-1.3.6-2.1 1-1.4 2.1-2.7.5-1.7.5-3.8c.2-2.1 0-1 1.4-2.2.4-1.6-10.3-13.1-13-13.1zm-43.2 71.9c-1 .5-3.2 1.1-4.4 2.1-1.4.8 0 1.3.6 3.3.6 2.1-2.9 3.5-4 4.9-1.1 1.3-1.1 2.7-1.7 3.2s-3.2.5-4.4.6c-1.3.2 1.3 2.9 1.3 2.9l-3.8 3.2s-3.3.2-4.6.5c-1.3.2-8.7.5-8.7.5s1.4-2.5 2.5-4c4.6-7.3 6.8-7.5 7.2-9.1 2.1-11.9-15.9-14.5-12.7-21.8 1.3-3 2.7-4.4 2.7-4.4s1-2.1 3.2-2.7 5.6-1.3 8.4-1c2.9.5 10.3 1 15.3 1.1 4.9.2 5.7-3.2 5.7-3.2s-1.6 1.6-2.1 4c-.5 2.2-2.9 8.1-2.9 8.1l-2.5 7 8.9 4.9c-.2-.1-3.1-.6-4-.1z"/></g></g><g fill="#0B4E95"><path d="M276.5 382.6l.2-.2-.2.2zM445 230.3c-2.7 0-9.1-1.1-9.9-.6-1 .6-7.9.2-8.3 1-.3 1 6.5 1.7 5.4 2.2s-11.8.6-13.2 1 7.6 1 7.5 2.4c-.2 1.3-3 1.1-3.3 1.6-.3.6 1.4 1.7 1 3.7-.5 1.7-1.4 2.9-3.2 2.7-1.6-.2-7-2.1-13.5-5.1-6.5-3.2-12.9-1.3-15.6-.8-2.9.5-6.5 1.4-10.5 1.7-4 .2-9.5.8-15.3 1.1-5.7.3-16.1 4.9-19.5 6.5-3.5 1.7-11.4 10.2-11.4 10.2s-5.9 4.8-7 11.1c0 .3-.3 6.8 1.9 8.9 2.2 2.2 2.4 2.5 3.7 3.3 1.3.6-1.6 1.9-1.6 1.9l5.7-1.6s-.6 2.5-.8 4.4c-.2 1.9.8 1.4 1 1.6.2.3-.3 2.5 1.3 4.1 1.4 1.7 2.1-.5 3.2 1.1.6.8-.3 1.6-1.3 2.1 2.2-.8 6.2-2.2 6-1.9-.3.5-1 2.1-1.1 4.1-.2 2.1.2 2.4 1.4 2.9 1.3.5 1.7-1 2.5.3s4.6 8.7 3.8 9.1-4.9 3-8.3 6.4c-3.3 3.5-8.7 11-11.4 15.4-2.7 4.4-7.8 8.7-12.6 12.1-4.8 3.2-5.6 4.1-5.6 4.1s-3.5-7-5.9-10.5c-3.5-5.2-6-7-7.6-8.4-3-2.5-5.9-4-5.9-4s1.4-3 4.1-4.4c3.8-2.1 6.2-5.9 7.5-9.9s4-7.6 7.2-13.2c3.3-5.6 8.9-6.5 9.9-5.9 1 .8 1.3 0 2.4 3s2.1 3.3 2.1 2.5 3 1.9 3 1.9.8-1.1-.5-4.4-4.6-5.9-5.2-6.7c-.6-.8-.6-1.1-.8-2.2-.2-1-1.6-2.7-1.6-2.7s-2.1 2.2-4.1 4.3c-2.1 2.1-7.5 8.9-7.5 8.9l-10.8 9.9 17-18.6L307 298s-9.2 7.5-8.4 8.1c.8.8.3 1.1-1.7 2.5-2.1 1.4-.2 1.4-1.9 2.4s-6.7-1.6-6.7-1.6 2.5 3.2 2.4 2.9c-.2-.2-3.2-.6-2.4-.3.8.3 1.1 2.1 1.1 2.1l-1.4-.3s.6 2.1-.5 4.1-4.1 2.9-4.3 1.9c-.2-1-5.9-1.4-9.9-1-4.1.6-5.6.6-9.7-1.4-4.1-2.1-5.9-.6-6.4.2-.6.8-5.1 3.2-5.1 3.2l.2-2.7s-8.7 4.4-8.7 5.7c0 1.3-2.9 4.8-2.4 4.8s9.9-8.4 29.4-7.3c9.1.5 15.1 6.4 15.1 6.4s-4.1 12.6-2.4 19.1c1.7 6.2-1.1 14.5-6.8 16.8-6 2.5-14-4.3-13.8-1.6.2 2.7.3 1.9 2.1 2.4 1.6.5 2.2.6 3.3 2.9 1 1.7.2 3-.2 3.5.2-.2.6-.5 1.9-.5 1.9-.2 2.4 1.6 2.4 1.6l-.6 3.3s5.1 0 8.3-1c3.2-1 5.2-2.9 6.4-4.8s.8-4.4 1.1-6c.3-1.6 1.6-1.4 1.6-1.4l-4.6-3s1.7-.5 3.2-1.1c1.4-.8 3.2-3.3 3-5.1-.2-1.9-2.2-1.7-2.2-1.7s.6-1.1.6-1.3c0-.2-.3-.6-1.3-1.9-1-1.1 0-2.5 0-2.5l3.8-10.2s6 5.2 8.6 13c2.4 7.9 1.9 18.6-1.3 26.2s-13.8 12.7-21.3 15.4c-7.5 2.7-18 1.4-25.9-1.7-7.9-3.2-11.6-9.5-11.6-9.5s-1.1.2-1.6.6c-.3.3-1 .8.3 3.2 1.3 2.5 6.2 5.6 10.2 7.6 4 2.1 19.2 4.3 19.2 4.3s-1.6 1.1-5.6.5c-2.9-.5-10-2.5-10-2.5l3.5 2.5 6.2 3.5s4.3.5 13-.5c8.6-1 16.7-5.6 19.9-7.2 3.2-1.6 12.2-9.2 12.1-9.2-1.4 1.3-3.8 4.4-3.8 4.4s-5.9 5.2-11.9 8.6c-6.2 3.3-18.9 5.6-18.9 5.6s7.9-.8 10.2-1.4c9.5-2.5 12.7-4.6 12.7-4.6s-3.5 3.2-4.3 3.8c-2.9 2.1-6.2 3.2-11.3 4-4 .5-8.9-.2-8.9-.2s-4-.5-3.8-.3c5.6 2.7 10.6 3.2 18.9 1.6 7.5-1.4 10.8-2.7 14.9-5.7s7.3-8.4 7.9-11c.6-2.5 2.4-4.8 3.5-6s.6-1.3.2-1.9c-.3-.6-.3-2.1-.3-2.1l1 1.3h2.5s-.5-2.1-.8-3.5 0-1.6.5-3.3c.6-1.7 1-3.3 1-3.3s6-3.7 6.4-4.3c.5-.6-3.3-1.6-3.3-1.6s1-.6 1.1-1c.3-.3 1-1.9.6-3.2-.3-1.3-2.4-1.6-1.9-2.9s1.4-.8 1.4-.8 8.6-2.5 13.3-3.8c4.6-1.3 5.9-1.7 8.7-3.5 2.9-1.9 3.8-4 4.3-4.3s1.7-1.6 2.1-2.2c.3-.8 1.6-2.4 3.3-2.7 1.7-.3 1.9-1.6 1.9-1.6l4.9 2.1.6-1.6s1.7.3 2.9-.2c1.1-.3 1.3-2.4 1.3-2.4s4.4-1 7.5 3c3.2 3.8 9.9-.6 11.6-1.3 7.3-2.5 2.5 12.1 7.2 19.1 2.7 4.1 7.6 2.9 8.9 4.8 6.4 9.4.8 10.8.8 10.8s1 1.4 1.6 2.1c.5.6-.5 2.4-.5 2.4l3.3-2.9-3.2 6.7s1.3-1.9 5.4-5.2c1.9-1.4 1.6-.2 2.9-7.8 1.3-7.6-5.1-8.1-5.1-8.1H401v-3.2s-4 .2-6-2.1c-2.1-2.4 1-9.9 3.3-13.5 2.2-3.8 6.4-2.4 10.3-.5 4 1.9 9.2 4.9 11.9 11 2.7 6 2.1 12.1.8 19.2-1.3 7.3-4.4 12.4-8.6 16.7-4.1 4.1-12.2 7-18.1 8.1-5.9 1-12.6 0-18.4-1.9-5.9-1.9-10.8-6.4-11.8-7.5s-2.4-2.9-2.4-2.9l-1 .3s-.5.2-.8.3c-.3.2-.5.6-.5.6-.3 4.4 5.6 7.6 10.2 9.9 16.2 7.2 24.3 4.4 24.3 4.4s-4.3 1.7-7.8 1.3c-3.5-.3-11.4-2.9-11.4-2.9s1.4 1 2.1 1.4c.8.5 3.3 2.2 3.8 2.5.5.2 3.5 1.4 5.4 1.7 4.9.6 10 0 21.1-3.3 12.1-3.5 21.6-13.5 22.9-14.8l-6.5 7.2s-4.1 3-7.3 5.1c-9.4 6-19.7 7.6-19.7 7.6s3.7-.5 6.4-.8c2.9-.3 15.7-6.2 15.7-6.2l-5.6 3.2s-4 2.1-5.7 2.9c-1.7.6-6.7 1.9-9.9 2.1-3.2.2-6.5-.2-6.5-.2l-2.7-.2s1.9 1.7 7.5 2.4 6 .8 13-.5c6.8-1.3 13.7-4.4 17.6-8.6 4-4.1 4.9-8.9 5.2-9.7.3-1 .5-1.9 1.4-2.9.8-1 .3-.5 1.3-1.9s.2-1.1-.2-2.2c-.3-1.1-.2-.5.5-2.1.6-1.4 1.1-1.7 2.1-3.5 1-1.7.2-1.6.2-3s1.3-1.7 1.7-2.4c.5-.5 5.9-3.5 5.9-3.5s-1.1-.2-1.7-.6c-.6-.3-1.1-.5-1.6-1s1-1 1.6-1.7c.5-1 .8-1.3 1-2.1.2-1-1.4-1.4-2.1-2.4-.6-1 .3-1.3.2-3.5-.2-2.2-3.2-6.2-3.7-7.6s-4.8-7.8-5.7-7.9-6.5-4-7.3-4.3-5.2-4.3-7.3-5.6c-2.1-1.3-4.6-4.3-6.4-4.4-1.7-.2-4.9-1.7-4.9-1.7s.2-1.3.3-2.5c.3-1.3.2-2.4.6-3.8.5-1.4 3.3-2.4 6.8-3.5 3.5-1.3 17.2-3 17.2-3s2.1.5 3.7 1c1.6.6 5.4 2.9 5.4 2.9s-.3-1-.3-1.3c0-.5-1.3-2.4-3.2-4.3-1.9-1.9-3.7-1.7-6.5-2.2-2.9-.6-7.5-.8-7.5-.8l-2.4-3.8s1 0 1.7-.2c.6-.2 3.5.2 4.8.2 1.1.2 3 1.4 3 1.4l-7.5.5 7.9.2 3.5.2s-.5-1.1-1.7-2.2c-1.3-1.1-7.9-3.8-10.3-4.6-2.5-.8-7.3-1.4-7.3-1.4l-7.8-4.4s9.2-12.1 9.5-12.4 2.7-.8 3.5-2.1c.8-1.3 1.1-1.4 1.6-3s.3-1 2.9-1.7c2.4-.8 2.1-1.6 1.9-2.4s1-.3 2.5-.5c1.6-.2.5-.8.8-2.1.2-1.3 1.7-.5 3.5-1 1.7-.5 6.2.2 8.1-1.7 2.1-1.9 2.1-2.1 3.8-3.8 1.7-1.7 1.3-.6 3.8-1.3 2.4-.6 1-.3 3.3-2.1 2.4-1.7.6-1 .8-2.2.2-1.3.3-1.3.6-2.1s1-1.3 2.1-2.7.5-1.7.5-3.8c.2-2.1 0-1 1.3-2.2.6-1.3-10.2-12.8-12.7-12.8zM401.7 302c-1 .5-3.2 1.1-4.4 2.1-1.4 1 0 1.3.6 3.3.6 2.1-2.9 3.5-4 4.9-1.1 1.3-1.1 2.7-1.7 3.2s-3.2.5-4.4.6c-1.3.2 1.3 2.9 1.3 2.9l-3.8 3.2s-3.3.2-4.6.5c-1.3.2-8.7.5-8.7.5s1.4-2.5 2.4-4c4.6-7.3 6.8-7.5 7.2-9.1 2.1-11.9-15.9-14.5-12.7-21.8 1.3-3 2.7-4.4 2.7-4.4s1-2.1 3.2-2.7 5.6-1.3 8.4-1c2.9.5 10.3 1 15.3 1.1 4.9.2 5.7-3.2 5.7-3.2s-1.6 1.6-2.1 4c-.5 2.2-2.9 8.1-2.9 8.1l-2.5 7 8.9 4.9c0-.1-3.1-.4-3.9-.1z"/></g><g fill="#0B4E95"><path d="M206.3 381.9l.2-.2c-.2.1-.2.2-.2.2z"/><path d="M374.6 229.5c-2.7 0-9.1-1.1-9.9-.6-1 .6-7.9.2-8.3 1-.3 1 6.5 1.7 5.4 2.2s-11.8.6-13.2 1c-1.4.3 7.6 1 7.5 2.4-.2 1.3-3 1.1-3.3 1.6s1.4 1.7 1 3.7c-.5 1.7-1.4 2.9-3.2 2.7-1.6-.2-7-2.1-13.5-5.1-6.5-3.2-12.9-1.3-15.6-.8-2.9.5-6.5 1.4-10.5 1.7-4 .2-9.5.8-15.3 1.1-5.7.3-16.1 4.9-19.5 6.5-3.5 1.7-11.4 10.2-11.4 10.2s-5.9 4.8-7 11.1c0 .3-.3 6.8 1.9 8.9 2.2 2.2 2.4 2.5 3.7 3.3 1.3.6-1.6 1.9-1.6 1.9l5.7-1.6s-.6 2.5-.8 4.4c-.2 1.9.8 1.4 1 1.6.2.3-.3 2.5 1.3 4.1 1.4 1.7 2.1-.5 3.2 1.1.6.8-.3 1.6-1.3 2.1 2.2-.8 6.2-2.2 6-1.9-.3.5-1 2.1-1.1 4.1-.2 2.1.2 2.4 1.4 2.9s1.7-1 2.5.3 4.6 8.7 3.8 9.1-4.9 3-8.3 6.4c-3.3 3.5-8.7 11-11.4 15.4-2.7 4.4-7.8 8.7-12.4 12.1-4.8 3.2-5.6 4.1-5.6 4.1s-3.5-7-5.9-10.5c-3.5-5.2-6-7-7.6-8.4-3-2.5-5.9-4-5.9-4s1.4-3 4.1-4.4c3.8-2.1 6.2-5.9 7.5-9.9s4-7.6 7.2-13.2c3.3-5.6 8.9-6.5 9.9-5.9 1 .8 1.3 0 2.4 3s2.1 3.3 2.1 2.5 3 1.9 3 1.9.8-1.1-.6-4.4c-1.3-3.3-4.6-5.9-5.2-6.7s-.6-1.1-.8-2.2c-.2-1-1.6-2.7-1.6-2.7s-2.1 2.2-4.1 4.3-7.5 8.9-7.5 8.9l-10.8 9.9 17.2-18.4-12.2 11.1s-9.2 7.5-8.4 8.1c.8.8.3 1.1-1.7 2.5-2.1 1.4-.2 1.4-1.9 2.4s-6.7-1.6-6.7-1.6 2.5 3.2 2.4 2.9c-.2-.2-3.2-.6-2.4-.3.8.3 1.1 2.1 1.1 2.1l-1.4-.3s.6 2.1-.5 4.1c-1.1 2.1-4.1 2.9-4.3 1.9s-5.9-1.4-9.9-1c-4.1.6-5.6.6-9.7-1.4-4.1-2.1-5.9-.6-6.4.2-.6.8-5.1 3.2-5.1 3.2l.2-2.7s-8.7 4.4-8.7 5.7-2.9 4.8-2.4 4.8 9.9-8.4 29.4-7.3c9.1.5 15.1 6.4 15.1 6.4s-4.1 12.6-2.4 19.1c1.7 6.2-1.1 14.5-6.8 16.8-6 2.5-14-4.3-13.8-1.6.2 2.7.3 1.9 2.1 2.4 1.6.5 2.2.6 3.3 2.9 1 1.7.2 3-.2 3.5.2-.2.6-.5 1.9-.5 1.9-.2 2.4 1.6 2.4 1.6l-.6 3.3s5.1 0 8.3-1 5.2-2.9 6.4-4.8c1.1-1.9.8-4.4 1.1-6s1.6-1.4 1.6-1.4l-4.6-3s1.7-.5 3.2-1.1 3.2-3.3 3-5.1c-.2-1.9-2.2-1.7-2.2-1.7s.6-1.1.6-1.3c0-.2-.3-.6-1.3-1.7s0-2.5 0-2.5l3.8-10.2s6 5.2 8.6 13c2.4 7.9 1.9 18.6-1.3 26.2s-13.8 12.7-21.3 15.4c-7.5 2.7-18 1.4-25.9-1.7-7.9-3.2-11.6-9.5-11.6-9.5s-1.1.2-1.6.6c-.3.3-1 .8.3 3.2 1.3 2.5 6.2 5.6 10.2 7.6 4 2.1 19.2 4.3 19.2 4.3s-1.6 1.1-5.6.5c-2.9-.5-10-2.5-10-2.5l3.5 2.5 6.2 3.5s4.3.5 13-.5c8.6-1 16.7-5.6 19.9-7.2s12.2-9.2 12.1-9.2c-1.4 1.3-3.8 4.4-3.8 4.4s-5.9 5.2-11.9 8.6c-6.2 3.3-18.9 5.6-18.9 5.6s7.9-.8 10.2-1.4c9.5-2.5 12.7-4.6 12.7-4.6s-3.5 3.2-4.3 3.8c-2.9 2.1-6.2 3.2-11.3 4-4 .5-8.9-.2-8.9-.2s-4-.5-3.8-.3c5.6 2.7 10.6 3.2 18.9 1.6 7.5-1.4 10.8-2.7 14.9-5.7s7.3-8.4 7.9-11c.6-2.5 2.4-4.8 3.5-6 1.1-1.3.6-1.3.2-1.9-.3-.6-.3-2.1-.3-2.1l1 1.3h2.5s-.5-2.1-.8-3.5 0-1.6.5-3.3c.6-1.7 1-3.3 1-3.3s6-3.7 6.4-4.3c.5-.6-3.3-1.6-3.3-1.6s1-.6 1.1-1c.3-.3 1-1.9.6-3.2-.3-1.3-2.4-1.6-1.9-2.9s1.4-.8 1.4-.8 8.6-2.5 13.3-3.8c4.6-1.3 5.9-1.7 8.7-3.5 2.9-1.9 3.8-4 4.3-4.4.5-.3 1.7-1.6 2.1-2.2.3-.8 1.6-2.4 3.3-2.9 1.7-.3 1.9-1.6 1.9-1.6l4.9 2.1.6-1.6s1.7.3 2.9-.2c1.1-.3 1.3-2.4 1.3-2.4s4.4-1 7.5 2.9c3.2 3.8 9.9-.6 11.6-1.3 7.3-2.5 2.5 12.1 7.2 19.1 2.7 4.1 7.6 2.9 8.9 4.8 6.4 9.4.8 10.8.8 10.8s1 1.4 1.6 2.1c.6.6-.5 2.4-.5 2.4l3.3-2.9-3.5 6.4s1.3-1.9 5.4-5.2c1.9-1.4 1.6-.2 2.9-7.8s-5.1-8.1-5.1-8.1l-3.5.2v-3.2s-4 .2-6-2.1c-2.1-2.4 1-9.9 3.3-13.5 2.2-3.8 6.4-2.4 10.3-.5 4 1.9 9.2 4.9 11.9 11 2.7 6 2.1 12.1.8 19.2-1.3 7.3-4.4 12.4-8.6 16.7-4.1 4.1-12.2 7-18.1 8.1-5.9 1-12.6 0-18.4-1.9-5.9-1.9-11-6.4-11.8-7.5-1-1.1-2.5-2.9-2.5-2.9l-1 .3s-.5.2-.8.3c-.3.2-.5.6-.5.6-.3 4.4 5.6 7.6 10.2 9.9 16.2 7.2 24.3 4.4 24.3 4.4s-4.3 1.7-7.8 1.3c-3.5-.3-11.4-2.9-11.4-2.9s1.4 1 2.1 1.4c.6.5 3.3 2.2 3.8 2.5.5.2 3.5 1.4 5.4 1.7 4.9.6 10 0 21.1-3.3 12.1-3.5 21.6-13.5 22.9-14.8l-6.5 7.2s-4.1 3-7.3 5.1c-9.4 6-19.7 7.6-19.7 7.6s3.7-.5 6.4-.8c2.9-.3 15.7-6.2 15.7-6.2l-5.6 3.2s-4 2.1-5.7 2.7-6.7 1.9-9.9 2.1c-3.2.2-6.5-.2-6.5-.2l-2.7-.2s1.9 1.7 7.5 2.4 6 .8 13-.5 13.7-4.4 17.6-8.6c4-4.1 4.9-8.9 5.2-9.7.3-1 .5-1.9 1.4-2.9.8-1 .3-.5 1.3-1.9s.2-1.1-.2-2.2-.2-.5.5-2.1c.6-1.4 1.1-1.7 2.1-3.5s.2-1.6.2-3 1.3-1.7 1.7-2.4c.5-.6 5.9-3.5 5.9-3.5s-1.1-.2-1.7-.6c-.6-.3-1.1-.5-1.6-1s1-1 1.6-1.7c.5-1 .8-1.3 1-2.1.2-.8-1.4-1.4-2.1-2.4-.6-1 .3-1.3.2-3.5-.2-2.2-3.2-6.2-3.5-7.6-.5-1.4-4.8-7.8-5.7-7.9-1-.2-6.5-4-7.3-4.3s-5.2-4.3-7.3-5.6c-2.1-1.3-4.6-4.3-6.4-4.4-1.7-.2-4.9-1.7-4.9-1.7s.2-1.3.3-2.5c.3-1.3.2-2.4.5-3.8.5-1.4 3.3-2.4 6.8-3.5 3.5-1.3 17.2-3 17.2-3s2.1.5 3.7 1c1.6.6 5.4 2.9 5.4 2.9s-.3-1-.3-1.3c0-.5-1.3-2.4-3.2-4.3-1.9-1.9-3.7-1.7-6.7-2.2-2.9-.6-7.5-.8-7.5-.8l-2.4-3.8s1 0 1.7-.2c.6-.2 3.5.2 4.8.2 1.1.2 3 1.4 3 1.4l-7.5.5 7.9.2 3.5.2s-.5-1.1-1.7-2.2-7.9-3.8-10.3-4.6c-2.5-.8-7.3-1.4-7.3-1.4l-7.8-4.4s9.2-12.1 9.5-12.4 2.7-.8 3.5-2.1c1-1.3 1.1-1.4 1.6-3s.3-1 2.9-1.7c2.4-.8 2.1-1.6 1.9-2.4s1-.3 2.5-.5c1.6-.2.5-.8.8-2.1.2-1.3 1.7-.5 3.5-1 1.7-.5 6.2.2 8.1-1.7 2.1-1.9 2.1-2.1 3.8-3.8s1.3-.6 3.8-1.3c2.5-.6 1-.3 3.3-2.1 2.4-1.7.6-1 .8-2.2.3-1.3.3-1.3.6-2.1s1-1.3 2.1-2.7c1.1-1.3.5-1.7.5-3.8.2-2.1 0-1 1.3-2.2.7-1-9.9-12.5-12.6-12.5zm-43.3 71.7c-1 .5-3.2 1.1-4.4 2.1-1.4.8 0 1.3.6 3.3.6 2.1-2.9 3.5-4 4.9-1.1 1.3-1.1 2.7-1.7 3.2s-3.2.5-4.4.6c-1.3.2 1.3 2.9 1.3 2.9l-3.8 3.2s-3.3.2-4.6.5c-1.3.2-8.7.5-8.7.5s1.4-2.5 2.5-4c4.6-7.3 6.8-7.5 7.2-9.1 2.1-11.9-15.9-14.5-12.7-21.8 1.3-3 2.7-4.4 2.7-4.4s1-2.1 3.2-2.7 5.6-1.3 8.4-1c2.9.5 10.3 1 15.3 1.1 4.9.2 5.9-3.2 5.9-3.2s-1.6 1.6-2.1 4c-.5 2.2-2.9 8.1-2.9 8.1l-2.5 7 8.9 4.9c-.3.1-3.2-.4-4.2-.1z"/></g><g fill="#D0D2D3"><path d="M133.8 382.3l.2-.2c-.2 0-.2.2-.2.2z"/><path d="M302.1 229.8c-2.7 0-9.1-1.1-9.9-.6-1 .6-7.9.2-8.3 1-.3 1 6.5 1.7 5.4 2.2s-11.8.6-13.2 1c-1.4.3 7.6 1 7.5 2.4-.2 1.3-3 1.1-3.3 1.6-.3.6 1.4 1.7 1 3.7-.5 1.7-1.4 2.9-3.2 2.7-1.6-.2-7-2.1-13.5-5.1-6.5-3.2-12.9-1.3-15.6-.8-2.9.5-6.5 1.4-10.5 1.7-4 .2-9.5.8-15.3 1.1-5.7.3-16.1 4.9-19.5 6.5-3.5 1.7-11.4 10.2-11.4 10.2s-5.9 4.8-7 11.1c0 .3-.3 6.8 1.9 8.9 2.2 2.2 2.4 2.5 3.7 3.3 1.3.6-1.6 1.9-1.6 1.9l5.7-1.6s-.6 2.5-.8 4.4.8 1.4 1 1.6c.2.3-.3 2.5 1.3 4.1 1.4 1.7 2.1-.5 3.2 1.1.6.8-.3 1.6-1.3 2.1 2.2-.8 6.2-2.2 6-1.9-.3.5-1 2.1-1.1 4.1-.2 2.1.2 2.4 1.4 2.9 1.3.5 1.7-1 2.5.3s4.6 8.7 3.8 9.1c-.8.3-4.9 3-8.3 6.4-3.3 3.5-8.7 11-11.4 15.4s-7.8 8.7-12.6 12.1c-4.8 3.2-5.6 4.1-5.6 4.1s-3.5-7-5.9-10.5c-3.5-5.2-6-7-7.6-8.4-3-2.5-5.9-4-5.9-4s1.4-3 4.1-4.4c3.8-2.1 6.2-5.9 7.5-9.9s4-7.6 7.2-13.2c3.3-5.6 8.9-6.5 9.9-5.9 1 .8 1.3 0 2.4 3 1.1 3 2.1 3.3 2.1 2.5s3 1.9 3 1.9.8-1.1-.6-4.4c-1.3-3.3-4.6-5.9-5.2-6.7-.6-.8-.6-1.1-.8-2.2-.2-1-1.6-2.7-1.6-2.7s-2.1 2.2-4.1 4.3c-2.1 2.1-7.5 8.9-7.5 8.9l-10.8 9.9 17.2-18.4-12.2 11.1s-9.2 7.5-8.4 8.1c.8.8.3 1.1-1.7 2.5-2.1 1.4-.2 1.4-1.9 2.4s-6.7-1.6-6.7-1.6 2.5 3.2 2.4 2.9c-.2-.2-3.2-.6-2.4-.3.8.3 1.1 2.1 1.1 2.1l-1.4-.3s.6 2.1-.5 4.1-4.1 2.9-4.3 1.9-5.9-1.4-9.9-1c-4.1.6-5.6.6-9.7-1.4-4.1-2.1-5.9-.6-6.4.2-.6.8-5.1 3.2-5.1 3.2l.2-2.7s-8.7 4.4-8.7 5.7c0 1.3-2.9 4.8-2.4 4.8s9.9-8.4 29.4-7.3c9.1.5 15.1 6.4 15.1 6.4s-4.1 12.6-2.4 19.1c1.7 6.2-1.1 14.5-6.8 16.8-6 2.5-14-4.3-13.8-1.6.2 2.7.3 1.9 2.1 2.4 1.6.5 2.2.6 3.3 2.9 1 1.7.2 3-.2 3.5.2-.2.6-.5 1.9-.5 1.9-.2 2.4 1.6 2.4 1.6l-.6 3.3s5.1 0 8.3-1 5.2-2.9 6.4-4.8c1.1-1.9.8-4.4 1.1-6s1.6-1.4 1.6-1.4l-4.6-3s1.7-.5 3.2-1.1c1.4-.6 3.2-3.3 3-5.1-.2-1.9-2.2-1.7-2.2-1.7s.6-1.1.6-1.3c0-.2-.3-.6-1.3-1.9-1-1.1 0-2.5 0-2.5l3.8-10s6 5.2 8.6 13c2.4 7.9 1.9 18.6-1.3 26.2s-13.8 12.7-21.3 15.4c-7.5 2.7-18 1.4-25.9-1.7s-11.6-9.5-11.6-9.5-1.1.2-1.6.6c-.3.3-1 .8.3 3.2 1.3 2.5 6.2 5.6 10.2 7.6 4 2.1 19.2 4.3 19.2 4.3s-1.6 1.1-5.6.5c-2.9-.5-10-2.5-10-2.5l3.5 2.5 6.2 3.5s4.3.5 13-.5c8.6-1 16.7-5.6 19.9-7.2s12.2-9.2 12.1-9.2c-1.4 1.3-3.8 4.4-3.8 4.4s-5.9 5.2-11.9 8.6c-6.2 3.3-18.9 5.6-18.9 5.6s7.9-.8 10.2-1.4c9.5-2.5 12.7-4.6 12.7-4.6s-3.5 3.2-4.3 3.8c-2.9 2.1-6.2 3.2-11.3 4-4 .5-8.9-.2-8.9-.2s-4-.5-3.8-.3c5.6 2.7 10.6 3.2 18.9 1.6 7.5-1.4 10.8-2.7 14.9-5.7s7.3-8.4 7.9-11c.6-2.5 2.4-4.8 3.5-6 1.1-1.3.6-1.3.2-1.9-.3-.6-.3-2.1-.3-2.1l1 1.3h2.5s-.5-2.1-.8-3.5 0-1.4.5-3.3c.6-1.7 1-3.3 1-3.3s6-3.7 6.4-4.3c.5-.6-3.3-1.6-3.3-1.6s1-.6 1.1-1c.3-.3 1-1.9.6-3.2-.3-1.3-2.4-1.6-1.9-2.9s1.6-.8 1.6-.8 8.6-2.5 13.2-3.8 5.9-1.7 8.7-3.5c2.9-1.9 3.8-4 4.3-4.4.5-.3 1.7-1.6 2.1-2.2.3-.8 1.6-2.4 3.3-2.7 1.7-.3 1.9-1.6 1.9-1.6l4.9 2.1.6-1.6s1.7.3 2.9-.2c1.1-.3 1.3-2.4 1.3-2.4s4.4-1 7.5 2.9c3.2 3.8 9.9-.6 11.6-1.3 7.3-2.5 2.5 12.1 7.2 19.1 2.7 4.1 7.6 2.9 8.9 4.8 6.4 9.4.8 10.8.8 10.8s1 1.4 1.6 2.1-.5 2.4-.5 2.4l3.3-2.9-3.2 6.7s1.3-1.9 5.4-5.2c1.9-1.4 1.6-.2 2.9-7.8 1.3-7.6-5.1-8.1-5.1-8.1l-3.5.2v-3.2s-4 .2-6-2.2 1-9.9 3.3-13.5c2.2-3.8 6.4-2.4 10.3-.6 4 1.9 9.2 4.9 11.9 11 2.7 6 2.1 12.1.8 19.2-1.3 7.3-4.4 12.4-8.6 16.7-4.1 4.1-12.2 7-18.1 8.1-5.9 1-12.6 0-18.4-1.9-5.9-1.9-11-6.4-11.8-7.5-1-1.1-2.5-2.9-2.5-2.9l-1 .3s-.5.2-.8.3c-.3.2-.5.6-.5.6-.3 4.4 5.6 7.6 10.2 9.7 16.2 7.2 24.3 4.4 24.3 4.4s-4.3 1.7-7.8 1.3c-3.5-.3-11.4-2.9-11.4-2.9s1.4 1 2.1 1.4c.8.5 3.3 2.2 3.8 2.5s3.5 1.4 5.4 1.7c4.9.6 10 0 21.1-3.3 12.1-3.5 21.6-13.5 22.9-14.8l-6.5 7.2s-4.1 3-7.3 5.1c-9.4 6-19.7 7.6-19.7 7.6s3.7-.5 6.4-.8c2.9-.3 15.7-6.2 15.7-6.2l-5.6 3.2s-4 2.1-5.7 2.7-6.7 1.9-9.9 2.1c-3.2.2-6.5-.2-6.5-.2l-2.7-.2s1.9 1.7 7.5 2.4c5.6.5 6 .8 13-.5s13.7-4.4 17.6-8.6c4-4.1 4.9-8.9 5.2-9.7.3-1 .5-1.9 1.4-2.9.8-1 .3-.5 1.3-1.9s.2-1.1-.2-2.2c-.3-1.1-.2-.5.5-2.1.6-1.4 1.1-1.7 2.1-3.5s.2-1.6.2-3 1.3-1.7 1.7-2.4c.5-.5 5.9-3.5 5.9-3.5s-1.1-.2-1.7-.6c-.6-.3-1.1-.5-1.6-1s1-1 1.6-1.7c.5-1 .8-1.3 1-2.1.2-1-1.4-1.4-2.1-2.4-.6-1 .3-1.3.2-3.5-.2-2.2-3.2-6.2-3.7-7.6s-4.8-7.8-5.7-7.9c-1-.2-6.5-4-7.3-4.3s-5.2-4.3-7.3-5.6c-2.1-1.3-4.6-4.3-6.4-4.4-1.7-.2-4.9-1.7-4.9-1.7s.2-1.3.3-2.5c.3-1.3.2-2.4.6-3.8.5-1.4 3.3-2.4 6.8-3.5 3.5-1.3 17.2-3 17.2-3s2.1.5 3.7 1c1.6.6 5.4 2.9 5.4 2.9s-.3-1-.3-1.3c0-.5-1.3-2.4-3.2-4.3-1.9-1.9-3.7-1.7-6.7-2.2-2.9-.6-7.5-.8-7.5-.8l-2.4-3.8s1 0 1.7-.2c.6-.2 3.5.2 4.8.2 1.1.2 3 1.4 3 1.4l-7.5.5 7.9.2 3.5.2s-.5-1.1-1.7-2.2c-1.3-1.1-7.9-3.8-10.3-4.6-2.5-.8-7.3-1.4-7.3-1.4l-7.8-4.4s9.2-12.1 9.5-12.4 2.7-.8 3.5-2.1c.8-1.3 1.1-1.4 1.6-3s.3-1 2.9-1.7c2.4-.8 2.1-1.6 1.9-2.4s1-.3 2.5-.5c1.6-.2.5-.8.8-2.1.2-1.3 1.7-.5 3.5-1 1.7-.5 6.2.2 8.1-1.7 2.1-1.9 2.1-2.1 3.8-3.8 1.7-1.7 1.3-.6 3.8-1.3s1-.3 3.3-2.1.6-1 .8-2.2c.2-1.3.3-1.3.6-2.1s1-1.3 2.1-2.7.5-1.7.5-3.8c.2-2.1 0-1 1.3-2.2.8-.9-10-12.6-12.7-12.6zm-43.2 71.9c-1 .5-3.2 1.1-4.4 2.1-1.4.8 0 1.3.6 3.3.6 2.1-2.9 3.5-4 4.9-1.1 1.3-1.1 2.7-1.7 3.2-.6.5-3.2.5-4.4.6-1.3.2 1.3 2.9 1.3 2.9l-3.8 3.2s-3.3.2-4.6.5c-1.3.2-8.7.5-8.7.5s1.4-2.5 2.4-4c4.6-7.3 6.8-7.5 7.2-9.1 2.1-11.9-15.9-14.5-12.7-21.8 1.3-3 2.7-4.4 2.7-4.4s1-2.1 3.2-2.7 5.6-1.3 8.4-1c2.9.5 10.3 1 15.3 1.1 4.9.2 5.7-3.2 5.7-3.2s-1.6 1.7-2.1 4c-.5 2.2-2.9 8.1-2.9 8.1l-2.4 7 8.9 4.9c-.2-.1-3.1-.6-4-.1z"/></g><path fill="#FFF" d="M609.6 432.5c-3.8-5.9-12.4-8.7-25.6-8.7h-88.2l-53.4 138.1h47.2l19.5-50.5h45.3c10.3 0 19.5-2.9 28-8.6 8.3-5.7 14.5-13.8 18.6-24.5l6.4-16.7c5.2-13.7 6-23.4 2.2-29.1zm-50.4 41.6h-28.6l2.1-5.4h28.6l-2.1 5.4zM432.1 561.8l17-44.2h-73.6l19.9-51.2H469l16.5-42.7h-78.2c-14.8 0-26.2 2.4-34.6 7.3-9.9 5.9-17.6 16.1-23.4 30.5l-23.5 60.7c-5.9 15.3-6.4 25.9-1.3 31.6 4.3 5.2 14.1 7.8 29.2 7.8H432v.2h.1zM194.7 439.5c-4.9-2.4-12.9-3.5-23.5-3.5h-24.5l4.6-12.1h-45.1l-4.6 12.1H77.1c-17.5 0-30.5 3.3-38.9 10-6.5 5.2-12.4 14.5-17.6 28L6.4 510.5c-5.2 13.3-6.5 22.7-4 27.8 3.3 6.7 13.8 10 31.1 10H58l-5.9 15.3h45.3l5.9-15.3h24.5c24.2 0 40.5-7.3 49.1-21.9 2.5-4.3 4.9-9.5 7.3-15.9l14.1-36.6c2.4-6.4 4.1-11.6 4.9-15.9 1.6-8.8-1.2-15-8.5-18.5zM73.6 504.1h-17L66 480h17l-9.4 24.1zm74-.3h-17.2l9.4-24.2h17l-9.2 24.2z"/><path fill="#0B4E95" d="M287.6 473.6h-31.3l1.9-4.8h31.3l-1.9 4.8z"/><path fill="#FFF" d="M325 424.5h-98.2l-53.4 138.1h97.9c20.5 0 35-11.1 43.7-33.5l6.4-16.5c3.5-9.1 3.5-16.2 0-21.3 7.3-4.8 12.7-11.6 16.2-20.5l6.2-16.2c7.6-20.1 1.4-30.1-18.8-30.1zm-52.1 90h-31.3l1.9-5.1h31.3l-1.9 5.1zm14.7-40.9h-31.3l1.9-4.8h31.3l-1.9 4.8z"/><path fill="#FFF" d="M240.1 503.8l-6.2 16.1h42l6.2-16.1h-42zm32.8 10.7h-31.3l1.9-5.1h31.3l-1.9 5.1z"/><path fill="#25225A" d="M242.7 508l-3.2 7.9h34.2l3.2-7.9h-34.2zm30.2 6.5h-31.3l1.9-5.1h31.3l-1.9 5.1z"/><defs><path id="a" d="M429.2 556.6h-73.6c-14.3 0-23.4-2.1-27-6.2-4.3-4.8-3.8-14.5 1.7-28.8l23.5-60.7c5.2-13.5 12.1-22.7 20.5-27.5 6.8-3.8 17.2-5.7 31.1-5.7H479l-12.9 33.2h-73.7L369 521.6h73.6l-13.4 35z"/></defs><clipPath id="b"><use xlink:href="#a" overflow="visible"/></clipPath><g clip-path="url(#b)" stroke="#0B4E95" stroke-width="1.5" stroke-miterlimit="10"><path fill="#EE3425" d="M317.4 511.6H479v50.9H317.4z"/><path fill="#0B4E95" d="M317.4 461.4H479v50.9H317.4z"/></g><path fill="none" stroke="#0B4E95" stroke-width="1.5" stroke-miterlimit="10" d="M429.2 556.6h-73.6c-14.3 0-23.4-2.1-27-6.2-4.3-4.8-3.8-14.5 1.7-28.8l23.5-60.7c5.2-13.5 12.1-22.7 20.5-27.5 6.8-3.8 17.2-5.7 31.1-5.7H479l-12.9 33.2h-73.7L369 521.6h73.6l-13.4 35z"/><defs><path id="c" d="M605.8 435c-3.2-4.8-11-7.2-23.4-7.2h-83.8l-49.9 128.9h38.5l19.5-50.5h49.6c10.8 0 19.4-2.7 25.9-8.1s11.3-12.2 14.5-20.3l6.4-16.7c5.1-12.6 5.9-21.3 2.7-26.1zm-46.4 39h-28.6l2.1-5.4h28.6l-2.1 5.4z"/></defs><clipPath id="d"><use xlink:href="#c" overflow="visible"/></clipPath><g clip-path="url(#d)" stroke="#0B4E95" stroke-width="1.5" stroke-miterlimit="10"><path fill="#EE3425" d="M442.4 511.5h164v50.9h-164z"/><path fill="#0B4E95" d="M442.4 461.1h164V512h-164z"/></g><path fill="none" stroke="#0B4E95" stroke-width="1.5" stroke-miterlimit="10" d="M605.8 435c-3.2-4.8-11-7.2-23.4-7.2h-83.8l-49.9 128.9h38.5l19.5-50.5h49.6c10.8 0 19.4-2.7 25.9-8.1s11.3-12.2 14.5-20.3l6.4-16.7c5.1-12.6 5.9-21.3 2.7-26.1zm-46.4 39h-28.6l2.1-5.4h28.6l-2.1 5.4z"/><path fill="#0B4E95" d="M528.9 461.9l-7.3 19.1h41.6l7.3-19.1h-41.6zm33.5 17.9h-39.3l6.5-16.8h39.3l-6.5 16.8z"/><path fill="#3b3140" d="M529.2 462.5l-6.8 18h40.4l7-18h-40.6z"/><defs><path id="e" d="M339.1 436.1c-2.4-3.7-7.9-5.4-16.4-5.4h-93l-48.9 126.5h91.7c9.2 0 16.7-2.4 22.4-7 5.6-4.3 10.2-11.4 14-21.1l6.4-16.5c3.7-9.5 2.7-16.1-3.2-19.9l-1.7-1.1 1.9-.8c9.1-3.7 15.6-10.3 19.2-19.9l6.2-16.2c3.3-8.7 3.8-14.9 1.4-18.6zM272.4 515h-31.3l1.9-5.1h31.3l-1.9 5.1zm14.9-41H256l1.9-4.8h31.3l-1.9 4.8z"/></defs><clipPath id="f"><use xlink:href="#e" overflow="visible"/></clipPath><g clip-path="url(#f)" stroke="#0B4E95" stroke-width="1.5" stroke-miterlimit="10"><path fill="#EE3425" d="M176.1 511.8h167v50.9h-167z"/><path fill="#0B4E95" d="M176.1 461.6h167v50.9h-167z"/></g><path fill="none" stroke="#0B4E95" stroke-width="1.5" stroke-miterlimit="10" d="M339.1 436.1c-2.4-3.7-7.9-5.4-16.4-5.4h-93l-48.9 126.5h91.7c9.2 0 16.7-2.4 22.4-7 5.6-4.3 10.2-11.4 14-21.1l6.4-16.5c3.7-9.5 2.7-16.1-3.2-19.9l-1.7-1.1 1.9-.8c9.1-3.7 15.6-10.3 19.2-19.9l6.2-16.2c3.3-8.7 3.8-14.9 1.4-18.6zM272.4 515h-31.3l1.9-5.1h31.3l-1.9 5.1zm14.9-41H256l1.9-4.8h31.3l-1.9 4.8z"/><path fill="#0B4E95" d="M291.5 480.3h-44.3l7-18.3h44.3l-7 18.3zm-42.6-1.1h42l6.2-16.1h-42l-6.2 16.1z"/><linearGradient id="g" gradientUnits="userSpaceOnUse" x1="162.126" y1="184.516" x2="162.126" y2="173.038" gradientTransform="translate(0 228.1) scale(1.5892)"><stop offset="0" stop-color="#FFF"/><stop offset=".141" stop-color="#fcfdfe"/><stop offset=".243" stop-color="#f3f6fa"/><stop offset=".333" stop-color="#e3ebf3"/><stop offset=".415" stop-color="#cddbe9"/><stop offset=".492" stop-color="#b0c6dd"/><stop offset=".566" stop-color="#8daccd"/><stop offset=".637" stop-color="#638dbb"/><stop offset=".703" stop-color="#336ba6"/><stop offset=".753" stop-color="#0b4e95"/></linearGradient><path fill="url(#g)" stroke="#0B4E95" stroke-miterlimit="10" d="M276.4 521.3H232l7-18.3h44.3l-6.9 18.3zm-42.6-1.1h42l6.2-16.1h-42l-6.2 16.1z"/><path fill="#3b3140" d="M255.1 463.3l-6.2 16.1h42l6.2-16.1h-42zM240 504.3l-6.2 16.1h42l6.2-16.1h-42z"/><g><defs><path id="h" d="M197.9 448.2c-3-5.4-12.4-7.9-28.4-7.9h-29.1l4.6-12.1h-36.1l-4.6 12.1H75.2c-15.9 0-27.5 2.7-34.5 7.9-5.7 4.3-11.1 12.7-15.9 25.3L10.6 510c-4.8 12.4-6 20.8-3.7 25.1 3 5.4 12.4 8.3 28.3 8.3h28.9l-5.9 15.1h36.2l5.9-15.1h28.9c15.9 0 27.5-2.7 34.8-8.3 5.6-4.3 10.8-12.6 15.6-25.1l14.1-36.6c5.1-12.5 6.4-20.9 4.2-25.2zM73.6 503.8h-17l9.4-24.2h17l-9.4 24.2zm73.9-.1h-17l9.4-24.2h17l-9.4 24.2z"/></defs><clipPath id="i"><use xlink:href="#h" overflow="visible"/></clipPath><g clip-path="url(#i)" stroke="#0B4E95" stroke-width="1.5" stroke-miterlimit="10"><path fill="#EE3425" d="M1.1 507.6h202.5v50.9H1.1z"/><path fill="#0B4E95" d="M1.1 457.4h202.5v50.9H1.1z"/></g><g><path fill="none" stroke="#0B4E95" stroke-width="1.5" stroke-miterlimit="10" d="M197.9 448.2c-3-5.4-12.4-7.9-28.4-7.9h-29.1l4.6-12.1h-36.1l-4.6 12.1H75.2c-15.9 0-27.5 2.7-34.5 7.9-5.7 4.3-11.1 12.7-15.9 25.3L10.6 510c-4.8 12.4-6 20.8-3.7 25.1 3 5.4 12.4 8.3 28.3 8.3h28.9l-5.9 15.1h36.2l5.9-15.1h28.9c15.9 0 27.5-2.7 34.8-8.3 5.6-4.3 10.8-12.6 15.6-25.1l14.1-36.6c5.1-12.5 6.4-20.9 4.2-25.2zM73.6 503.8h-17l9.4-24.2h17l-9.4 24.2zm73.9-.1h-17l9.4-24.2h17l-9.4 24.2z"/></g></g><path fill="#3b3140" d="M62.1 473.5L48 510h28.9L91 473.4H62.1v.1zM136.4 473.5L122.2 510h28.9l14.1-36.6h-28.8v.1z"/><g fill="#EE3425"><path d="M343.7 382.7l.2-.2-.2.2zM512 230.5c-2.7 0-9.1-1.1-9.9-.6-1 .6-7.9.2-8.3 1-.3 1 6.5 1.7 5.4 2.2s-11.8.6-13.2 1 7.6 1 7.5 2.4c-.2 1.3-3 1.1-3.3 1.6-.3.6 1.4 1.7 1 3.7-.5 1.7-1.4 2.9-3.2 2.7-1.6-.2-7-2.1-13.5-5.1-6.5-3.2-12.9-1.3-15.6-.8-2.9.5-6.5 1.4-10.5 1.7-4 .2-9.5.8-15.3 1.1-5.7.3-16.1 4.9-19.5 6.5-3.5 1.7-11.4 10.2-11.4 10.2s-5.9 4.8-7 11.1c0 .3-.3 6.8 1.9 8.9 2.2 2.2 2.4 2.5 3.7 3.3 1.3.6-1.6 1.9-1.6 1.9l5.7-1.6s-.6 2.5-.8 4.4c-.2 1.9.8 1.4 1 1.6.2.3-.3 2.5 1.3 4.1 1.4 1.7 2.1-.5 3.2 1.1.6.8-.3 1.6-1.3 2.1 2.2-.8 6.2-2.2 6-1.9-.3.5-1 2.1-1.1 4.1-.2 2.1.2 2.4 1.4 2.9s1.7-1 2.5.3 4.6 8.7 3.8 9.1c-.8.3-4.9 3-8.3 6.4-3.3 3.5-8.7 11-11.4 15.4-2.7 4.4-7.8 8.7-12.6 12.1-4.8 3.2-5.6 4.1-5.6 4.1s-3.5-7-5.9-10.5c-3.5-5.2-6-7-7.6-8.4-3-2.5-5.9-4-5.9-4s1.4-3 4.1-4.4c3.8-2.1 6.2-5.9 7.5-9.9s4-7.6 7.2-13.2c3.3-5.6 8.9-6.5 9.9-5.9 1 .8 1.3 0 2.4 3s2.1 3.3 2.1 2.5 3 1.9 3 1.9.8-1.1-.6-4.4c-1.3-3.3-4.6-5.9-5.2-6.7-.6-.8-.6-1.1-.8-2.2-.2-1-1.6-2.7-1.6-2.7s-2.1 2.2-4.1 4.3-7.5 8.9-7.5 8.9l-10.8 9.9 17.2-18.4-12.2 11.1s-9.2 7.5-8.4 8.1c.8.8.3 1.1-1.7 2.5-2.1 1.4-.2 1.4-1.9 2.4s-6.7-1.6-6.7-1.6 2.5 3.2 2.4 2.9c-.2-.2-3.2-.6-2.4-.3.8.3 1.1 2.1 1.1 2.1l-1.4-.3s.6 2.1-.5 4.1c-1.1 2.1-4.1 2.9-4.3 1.9s-5.9-1.4-9.9-1c-4.1.6-5.6.6-9.7-1.4s-5.9-.6-6.4.2c-.6.8-5.1 3.2-5.1 3.2l.2-2.7s-8.7 4.4-8.7 5.7c0 1.4-2.9 4.8-2.4 4.8s9.9-8.4 29.4-7.3c9.1.5 15.1 6.4 15.1 6.4s-4.1 12.6-2.4 19.1c1.7 6.2-1.1 14.5-6.8 16.8-6 2.5-14-4.3-13.8-1.6.2 2.7.3 1.9 2.1 2.4 1.6.5 2.2.6 3.3 2.9 1 1.7.2 3-.2 3.5.2-.2.6-.5 1.9-.5 1.9-.2 2.4 1.6 2.4 1.6l-.6 3.3s5.1 0 8.3-1c3.2-1 5.2-2.9 6.4-4.8 1.1-1.9.8-4.4 1.1-6s1.6-1.4 1.6-1.4l-4.6-3s1.7-.5 3.2-1.1 3.2-3.3 3-5.1c-.2-1.9-2.2-1.7-2.2-1.7s.6-1.1.6-1.3c0-.2-.3-.6-1.3-1.9-1-1.1 0-2.5 0-2.5l3.8-10.2s6 5.2 8.6 13c2.4 7.9 1.9 18.6-1.3 26.2-3.2 7.6-13.8 12.7-21.3 15.4-7.5 2.7-18 1.4-25.9-1.7-7.9-3.2-11.6-9.5-11.6-9.5s-1.1.2-1.6.6c-.3.3-1 .8.3 3.2 1.3 2.5 6.2 5.6 10.2 7.6 4 2.1 19.2 4.3 19.2 4.3s-1.6 1.1-5.6.5c-2.9-.5-10-2.5-10-2.5l3.5 2.5 6.2 3.5s4.3.5 13-.5c8.6-1 16.7-5.6 19.9-7.2 3.2-1.6 12.2-9.2 12.1-9.2-1.4 1.3-3.8 4.4-3.8 4.4s-5.9 5.2-11.9 8.6c-6.2 3.3-18.9 5.6-18.9 5.6s7.9-.8 10.2-1.4c9.5-2.5 12.7-4.6 12.7-4.6s-3.5 3.2-4.3 3.8c-2.9 2.1-6.2 3.2-11.3 4-4 .5-8.9-.2-8.9-.2s-4-.5-3.8-.3c5.6 2.7 10.6 3.2 18.9 1.6 7.5-1.4 10.8-2.7 14.9-5.7s7.3-8.4 7.9-11c.6-2.5 2.5-4.8 3.5-6 1.1-1.3.6-1.3.2-1.9-.3-.6-.3-2.1-.3-2.1l1 1.3h2.5s-.5-2.1-.8-3.5 0-1.6.5-3.3c.2-1.3.5-2.9.5-2.9s6-3.7 6.4-4.3c.5-.6-3.3-1.6-3.3-1.6s1-.6 1.1-1c.3-.3 1-1.9.6-3.2-.3-1.3-2.4-1.6-1.9-2.9s1.6-.8 1.6-.8 8.6-2.5 13.3-3.8c4.6-1.3 5.9-1.7 8.7-3.5 2.9-1.9 3.8-4 4.3-4.4.5-.3 1.7-1.6 2.1-2.2.3-.8 1.6-2.4 3.3-2.7s1.9-1.6 1.9-1.6l4.9 2.1.6-1.6s1.7.3 2.9-.2c1.1-.3 1.3-2.4 1.3-2.4s4.4-1 7.5 3c3.2 3.8 9.9-.6 11.6-1.3 7.3-2.5 2.5 12.1 7.2 19.1 2.7 4.1 7.6 2.9 8.9 4.8 6.4 9.4.8 10.8.8 10.8s1 1.4 1.6 2.1c.5.6-.5 2.4-.5 2.4l3.3-2.9-3.2 6.7s1.3-1.9 5.4-5.2c1.9-1.4 1.6-.2 2.9-7.8s-5.1-8.1-5.1-8.1l-3.5.2v-3.2s-4 .2-6-2.1c-2.1-2.4 1-9.9 3.3-13.5 2.2-3.8 6.4-2.4 10.3-.5 4 1.9 9.2 4.9 11.9 11 2.7 6 2.1 12.1.8 19.2-1.3 7.3-4.4 12.4-8.6 16.7-4.1 4.1-12.2 7-18.1 8.1-5.9 1-12.6 0-18.4-1.9-5.9-1.9-11-6.4-11.8-7.5-1-1.1-2.5-2.9-2.5-2.9l-1 .3s-.5.2-.8.3c-.3.2-.5.6-.5.6-.3 4.4 5.6 7.6 10.2 9.7 16.2 7.2 24.3 4.4 24.3 4.4s-4.3 1.7-7.8 1.3c-3.5-.3-11.4-2.9-11.4-2.9s1.3 1 2.1 1.4c.6.5 3.3 2.2 3.8 2.5.5.2 3.5 1.4 5.4 1.7 4.9.6 10 0 21.1-3.3 12.1-3.5 21.6-13.5 22.9-14.8l-6.5 7.2s-4.1 3-7.3 5.1c-9.4 6-19.7 7.6-19.7 7.6s3.7-.5 6.4-.8c2.9-.3 15.7-6.2 15.7-6.2l-5.6 3.2s-4 2.1-5.7 2.9c-1.7.6-6.7 1.9-9.9 2.1s-6.5-.2-6.5-.2l-2.7-.2s1.9 1.7 7.5 2.4c5.6.6 6 .8 13-.5s13.7-4.4 17.6-8.6c4-4.1 4.9-8.9 5.2-9.7.3-1 .5-1.9 1.4-2.9s.3-.5 1.3-1.9.2-1.1-.2-2.2c-.3-1.1-.2-.5.6-2.1.6-1.4 1.1-1.7 2.1-3.5 1-1.7.2-1.6.2-3s1.3-1.7 1.7-2.4c.5-.5 5.9-3.5 5.9-3.5s-1.1-.2-1.7-.6c-.6-.3-1.1-.5-1.6-.8-.5-.5 1-1 1.6-1.7.5-1 .8-1.3 1-2.1.2-.8-1.4-1.4-2.1-2.4-.6-1 .3-1.3.2-3.5-.2-2.2-3.2-6.2-3.5-7.6-.5-1.4-4.8-7.8-5.7-7.9-1-.2-6.5-4-7.3-4.3s-5.2-4.3-7.3-5.6c-2.1-1.3-4.6-4.3-6.4-4.4-1.7-.2-4.9-1.7-4.9-1.7s.2-1.3.3-2.5c.3-1.3.2-2.4.6-3.8.5-1.4 3.3-2.4 6.8-3.5 3.5-1.3 17.2-3 17.2-3s2.1.5 3.7 1c1.6.6 5.4 2.9 5.4 2.9s-.3-1-.3-1.3c0-.5-1.3-2.4-3.2-4.3-1.9-1.9-3.7-1.7-6.7-2.2-2.9-.6-7.5-.8-7.5-.8l-2.4-3.8s1 0 1.7-.2c.6-.2 3.5.2 4.6.2 1.1.2 3 1.4 3 1.4l-7.5.5 7.9.2 3.5.2s-.5-1.1-1.7-2.2c-1.3-1.1-7.9-3.8-10.3-4.6-2.5-.8-7.3-1.4-7.3-1.4l-7.8-4.4s9.2-12.1 9.5-12.4 2.7-.8 3.7-2.1c.8-1.3 1.1-1.4 1.6-3s.3-1 2.9-1.7c2.4-.8 2.1-1.6 1.9-2.4s1-.3 2.5-.5c1.6-.2.5-.8.8-2.1.2-1.3 1.7-.5 3.5-1 1.7-.5 6.2.2 8.1-1.7 2.1-1.9 2.1-2.1 3.8-3.8 1.7-1.7 1.3-.6 3.8-1.3s1-.3 3.3-2.1c2.4-1.7.6-1 .8-2.2s.3-1.3.6-2.1 1-1.3 2.1-2.7c1.1-1.3.5-1.7.5-3.8.2-2.1 0-1 1.3-2.2.8-2.1-9.9-13.5-12.6-13.5zm-43.2 71.7c-1 .5-3.2 1.1-4.4 2.1-1.4.8 0 1.3.6 3.3.6 2.1-2.9 3.5-4 4.9-1.1 1.3-1.1 2.7-1.7 3.2s-3.2.5-4.4.6c-1.3.2 1.3 2.9 1.3 2.9l-3.8 3.2s-3.3.2-4.6.5c-1.3.2-8.7.5-8.7.5s1.4-2.5 2.5-4c4.6-7.3 6.8-7.5 7.2-9.1 2.1-11.9-15.9-14.5-12.7-21.8 1.3-3 2.7-4.4 2.7-4.4s1-2.1 3.2-2.7 5.6-1.3 8.4-1c2.9.5 10.3 1 15.3 1.1 4.9.2 5.7-3.2 5.7-3.2s-1.6 1.6-2.1 4c-.5 2.2-2.9 8.1-2.9 8.1l-2.4 7 8.9 4.9c-.3-.1-3.1-.5-4.1-.1z"/></g></svg>